<svg width="3498" height="2250" viewBox="0 0 3498 2250" fill="none" xmlns="http://www.w3.org/2000/svg">
<path d="M2466.45 1164.59H3387.12L3319.05 508.745H2390.58L2466.45 1164.59Z" fill="#F5F5F5"/>
<path d="M3285.89 1054.55C3286.73 1054.55 3277.19 955.804 3264.65 834.238C3252.11 712.673 3241.26 613.929 3240.47 613.929C3239.68 613.929 3249.17 712.616 3261.71 834.238C3274.25 955.86 3285.1 1054.6 3285.89 1054.55Z" fill="#E0E0E0"/>
<path d="M3118.28 636.242C3133.64 637.697 3149.07 638.187 3164.49 637.711C3179.91 638.187 3195.34 637.697 3210.7 636.242C3195.34 634.754 3179.91 634.263 3164.49 634.773C3149.07 634.263 3133.64 634.754 3118.28 636.242V636.242Z" fill="#E0E0E0"/>
<path d="M2725.06 636.242C2725.06 637.033 2807.48 637.711 2909.1 637.711C3010.73 637.711 3093.2 637.033 3093.2 636.242C3093.2 635.451 3010.78 634.773 2909.1 634.773C2807.42 634.773 2725.06 635.395 2725.06 636.242Z" fill="#E0E0E0"/>
<path d="M3129.18 869.262C3144.54 870.75 3159.97 871.241 3175.39 870.73C3190.81 871.241 3206.25 870.75 3221.6 869.262C3206.24 867.807 3190.81 867.317 3175.39 867.793C3159.97 867.317 3144.54 867.807 3129.18 869.262Z" fill="#E0E0E0"/>
<path d="M2735.96 869.262C2735.96 870.109 2818.38 870.73 2920 870.73C3021.63 870.73 3104.1 870.109 3104.1 869.262C3104.1 868.414 3021.68 867.793 2920 867.793C2818.32 867.793 2735.96 868.471 2735.96 869.262Z" fill="#E0E0E0"/>
<path d="M2861.37 976.987C2861.37 977.835 2943.79 978.456 3045.41 978.456C3147.04 978.456 3229.51 977.835 3229.51 976.987C3229.51 976.14 3147.09 975.519 3045.41 975.519C2943.73 975.519 2861.37 975.914 2861.37 976.987Z" fill="#E0E0E0"/>
<path d="M3077.55 702.053C3077.55 702.843 3106.65 703.521 3142.57 703.521C3178.5 703.521 3207.59 702.843 3207.59 702.053C3207.59 701.262 3178.44 700.527 3142.57 700.527C3106.7 700.527 3077.55 701.205 3077.55 702.053Z" fill="#E0E0E0"/>
<path d="M3080.83 798.48C3080.83 799.328 3109.98 799.949 3145.85 799.949C3181.72 799.949 3210.87 799.328 3210.87 798.48C3210.87 797.633 3181.78 797.011 3145.85 797.011C3109.92 797.011 3080.83 797.689 3080.83 798.48Z" fill="#E0E0E0"/>
<path d="M2970.9 936.371C2970.9 937.162 3000.05 937.84 3035.92 937.84C3071.79 937.84 3100.94 937.162 3100.94 936.371C3100.94 935.58 3071.85 934.903 3035.92 934.903C2999.99 934.903 2970.9 935.524 2970.9 936.371Z" fill="#E0E0E0"/>
<path d="M2604.62 702.053C2604.62 702.843 2678.96 703.521 2770.7 703.521C2862.44 703.521 2936.84 702.843 2936.84 702.053C2936.84 701.262 2862.44 700.527 2770.7 700.527C2678.96 700.527 2604.62 701.205 2604.62 702.053Z" fill="#E0E0E0"/>
<path d="M2707.04 804.073C2707.04 804.92 2781.38 805.541 2873.12 805.541C2964.86 805.541 3039.2 804.92 3039.2 804.073C3039.2 803.225 2964.86 802.604 2873.12 802.604C2781.38 802.604 2707.04 803.282 2707.04 804.073Z" fill="#E0E0E0"/>
<path d="M2592.7 936.371C2592.7 937.162 2667.1 937.84 2758.78 937.84C2850.46 937.84 2924.92 937.162 2924.92 936.371C2924.92 935.58 2850.52 934.903 2758.78 934.903C2667.04 934.903 2592.7 935.524 2592.7 936.371Z" fill="#E0E0E0"/>
<path d="M2896 1054.55C2896 1055.34 2970.39 1056.02 3062.13 1056.02C3153.87 1056.02 3228.21 1055.34 3228.21 1054.55C3228.21 1053.76 3153.87 1053.08 3062.13 1053.08C2970.39 1053.08 2896 1053.7 2896 1054.55Z" fill="#E0E0E0"/>
<path d="M2528.64 1054.55C2528.64 1055.34 2603.04 1056.02 2694.72 1056.02C2786.41 1056.02 2860.86 1055.34 2860.86 1054.55C2860.86 1053.76 2786.52 1053.08 2694.72 1053.08C2602.93 1053.08 2528.64 1053.7 2528.64 1054.55Z" fill="#E0E0E0"/>
<path d="M2896.05 1092.96C2896.05 1093.81 2970.39 1094.43 3062.13 1094.43C3153.87 1094.43 3228.27 1093.81 3228.27 1092.96C3228.27 1092.11 3153.87 1091.49 3062.13 1091.49C2970.39 1091.49 2896.05 1092.17 2896.05 1092.96Z" fill="#E0E0E0"/>
<path d="M2879.9 729.732C2879.9 730.523 2954.24 731.201 3045.98 731.201C3137.71 731.201 3212.11 730.523 3212.11 729.732C3212.11 728.942 3137.71 728.264 3045.98 728.264C2954.24 728.264 2879.9 728.885 2879.9 729.732Z" fill="#E0E0E0"/>
<path d="M2968.47 702.392C2982.68 703.846 2996.96 704.336 3011.23 703.86C3025.52 704.337 3039.83 703.846 3054.05 702.392C3039.83 700.903 3025.52 700.413 3011.23 700.923C2996.96 700.413 2982.67 700.904 2968.47 702.392V702.392Z" fill="#E0E0E0"/>
<path d="M3140.03 900.952C3154.25 902.407 3168.56 902.898 3182.85 902.421C3197.12 902.897 3211.41 902.406 3225.61 900.952C3211.41 899.498 3197.12 899.008 3182.85 899.484C3168.56 899.007 3154.25 899.498 3140.03 900.952V900.952Z" fill="#E0E0E0"/>
<path d="M3142.06 936.371C3156.27 937.826 3170.56 938.316 3184.83 937.84C3199.12 938.317 3213.42 937.826 3227.65 936.371C3213.42 934.883 3199.12 934.392 3184.83 934.903C3170.56 934.393 3156.27 934.884 3142.06 936.371V936.371Z" fill="#E0E0E0"/>
<path d="M2400.75 578.114C2400.75 578.962 2607.79 579.583 2863.12 579.583C3118.45 579.583 3325.6 578.962 3325.6 578.114C3325.6 577.267 3118.56 576.646 2863.12 576.646C2607.67 576.646 2400.75 577.324 2400.75 578.114Z" fill="#E0E0E0"/>
<path d="M3263.18 557.835C3257.13 557.835 3252.22 552.928 3252.22 546.876C3252.22 540.823 3257.13 535.917 3263.18 535.917C3269.23 535.917 3274.14 540.823 3274.14 546.876C3274.14 552.928 3269.23 557.835 3263.18 557.835Z" fill="white"/>
<path d="M3216.12 557.835C3210.07 557.835 3205.16 552.928 3205.16 546.876C3205.16 540.823 3210.07 535.917 3216.12 535.917C3222.17 535.917 3227.08 540.823 3227.08 546.876C3227.08 552.928 3222.17 557.835 3216.12 557.835Z" fill="white"/>
<path d="M3169.07 557.835C3163.01 557.835 3158.11 552.928 3158.11 546.876C3158.11 540.823 3163.01 535.917 3169.07 535.917C3175.12 535.917 3180.03 540.823 3180.03 546.876C3180.03 552.928 3175.12 557.835 3169.07 557.835Z" fill="white"/>
<path d="M75.8654 836.667H996.533L928.463 180.88H-0.000119485L75.8654 836.667Z" fill="#F5F5F5"/>
<path d="M895.304 726.626C896.094 726.626 886.604 627.882 874.064 506.316C861.523 384.751 850.677 286.007 849.886 286.346C849.095 286.685 858.586 385.033 871.126 506.655C883.667 628.277 894.513 726.682 895.304 726.626Z" fill="#E0E0E0"/>
<path d="M727.699 308.32C758.474 310.278 789.341 310.278 820.116 308.32C789.341 306.362 758.474 306.362 727.699 308.32V308.32Z" fill="#E0E0E0"/>
<path d="M334.419 308.32C334.419 309.111 416.837 309.789 518.518 309.789C620.2 309.789 702.618 309.111 702.618 308.32C702.618 307.529 620.2 306.851 518.518 306.851C416.837 306.851 334.419 307.529 334.419 308.32Z" fill="#E0E0E0"/>
<path d="M738.545 541.396C769.338 543.354 800.225 543.354 831.019 541.396C800.225 539.438 769.338 539.438 738.545 541.396Z" fill="#E0E0E0"/>
<path d="M345.038 541.396C345.038 542.187 427.457 542.865 529.138 542.865C630.819 542.865 713.238 542.187 713.238 541.396C713.238 540.605 630.819 539.927 529.138 539.927C427.457 539.927 345.038 540.549 345.038 541.396Z" fill="#E0E0E0"/>
<path d="M470.728 648.839C470.728 649.63 553.146 650.308 654.828 650.308C756.509 650.308 838.927 649.63 838.927 648.839C838.927 648.049 756.509 647.371 654.828 647.371C553.146 647.371 470.728 647.992 470.728 648.839Z" fill="#E0E0E0"/>
<path d="M686.914 374.131C686.914 374.921 716.062 375.599 751.933 375.599C787.804 375.599 816.952 374.921 816.952 374.131C816.952 373.34 787.86 372.549 751.764 372.549C715.667 372.549 686.914 373.283 686.914 374.131Z" fill="#E0E0E0"/>
<path d="M690.246 470.558C690.246 471.406 719.338 472.027 755.266 472.027C791.193 472.027 820.285 471.406 820.285 470.558C820.285 469.711 791.193 469.089 755.266 469.089C719.338 469.089 690.246 469.767 690.246 470.558Z" fill="#E0E0E0"/>
<path d="M580.318 608.449C580.318 609.24 609.41 609.918 645.337 609.918C681.264 609.918 710.357 609.24 710.357 608.449C710.357 607.658 681.264 606.981 645.337 606.981C609.41 606.981 580.318 607.658 580.318 608.449Z" fill="#E0E0E0"/>
<path d="M213.87 374.131C213.87 374.921 288.267 375.599 380.006 375.599C471.745 375.599 546.085 374.921 546.085 374.131C546.085 373.34 471.745 372.662 380.006 372.662C288.267 372.662 213.87 373.283 213.87 374.131Z" fill="#E0E0E0"/>
<path d="M316.398 476.151C316.398 476.998 390.795 477.619 482.534 477.619C574.273 477.619 648.614 476.998 648.614 476.151C648.614 475.303 574.273 474.682 482.534 474.682C390.795 474.682 316.398 475.36 316.398 476.151Z" fill="#E0E0E0"/>
<path d="M202.12 608.449C202.12 609.24 276.46 609.918 368.199 609.918C459.938 609.918 534.279 609.24 534.279 608.449C534.279 607.658 459.938 606.981 368.199 606.981C276.46 606.981 202.12 607.658 202.12 608.449Z" fill="#E0E0E0"/>
<path d="M505.413 726.625C505.413 727.416 579.809 728.094 671.492 728.094C763.174 728.094 837.628 727.416 837.628 726.625C837.628 725.835 763.287 725.157 671.492 725.157C579.696 725.157 505.413 725.778 505.413 726.625Z" fill="#E0E0E0"/>
<path d="M138.061 726.625C138.061 727.416 212.401 728.094 304.14 728.094C395.879 728.094 470.276 727.416 470.276 726.625C470.276 725.835 395.879 725.157 304.14 725.157C212.401 725.157 138.061 725.778 138.061 726.625Z" fill="#E0E0E0"/>
<path d="M505.469 765.039C505.469 765.886 579.809 766.507 671.548 766.507C763.287 766.507 837.628 765.886 837.628 765.039C837.628 764.191 763.287 763.57 671.548 763.57C579.809 763.57 505.469 764.248 505.469 765.039Z" fill="#E0E0E0"/>
<path d="M489.257 401.81C489.257 402.601 563.653 403.279 655.392 403.279C747.131 403.279 821.472 402.601 821.472 401.81C821.472 401.02 747.131 400.342 655.392 400.342C563.653 400.342 489.257 400.794 489.257 401.81Z" fill="#E0E0E0"/>
<path d="M577.888 374.469C606.363 376.428 634.939 376.428 663.414 374.469C634.939 372.511 606.363 372.511 577.888 374.469V374.469Z" fill="#E0E0E0"/>
<path d="M749.448 573.03C777.941 574.989 806.536 574.989 835.029 573.03C806.536 571.072 777.941 571.072 749.448 573.03Z" fill="#E0E0E0"/>
<path d="M751.481 608.449C779.956 610.408 808.532 610.408 837.007 608.449C808.532 606.491 779.956 606.491 751.481 608.449V608.449Z" fill="#E0E0E0"/>
<path d="M10.1118 250.192C10.1118 251.04 217.203 251.661 472.536 251.661C727.868 251.661 934.959 251.04 934.959 250.192C934.959 249.345 727.981 248.724 472.536 248.724C217.09 248.724 10.1118 249.401 10.1118 250.192Z" fill="#E0E0E0"/>
<path d="M872.595 229.913C866.542 229.913 861.636 225.006 861.636 218.954C861.636 212.901 866.542 207.995 872.595 207.995C878.647 207.995 883.554 212.901 883.554 218.954C883.554 225.006 878.647 229.913 872.595 229.913Z" fill="white"/>
<path d="M825.539 229.913C819.487 229.913 814.58 225.006 814.58 218.954C814.58 212.901 819.487 207.995 825.539 207.995C831.592 207.995 836.498 212.901 836.498 218.954C836.498 225.006 831.592 229.913 825.539 229.913Z" fill="white"/>
<path d="M778.483 229.913C772.431 229.913 767.524 225.006 767.524 218.954C767.524 212.901 772.431 207.995 778.483 207.995C784.536 207.995 789.442 212.901 789.442 218.954C789.442 225.006 784.536 229.913 778.483 229.913Z" fill="white"/>
<path d="M2006.85 408.476H2580.28L2537.91 0H1959.62L2006.85 408.476Z" fill="#EBEBEB"/>
<path d="M2517.23 339.898C2518.02 339.898 2512.37 278.381 2504.58 202.685C2496.78 126.989 2489.78 65.6409 2488.93 65.6974C2488.08 65.7539 2493.79 127.271 2501.64 202.967C2509.49 278.663 2516.44 340.011 2517.23 339.898Z" fill="#E0E0E0"/>
<path d="M2412.56 79.3678C2431.7 81.3262 2450.98 81.3262 2470.12 79.3678C2450.98 77.4095 2431.7 77.4095 2412.56 79.3678V79.3678Z" fill="#E0E0E0"/>
<path d="M2167.9 79.3678C2167.9 80.2151 2219.25 80.8365 2282.57 80.8365C2345.9 80.8365 2397.25 80.2151 2397.25 79.3678C2397.25 78.5204 2345.9 77.899 2282.57 77.899C2219.25 77.899 2167.9 78.8029 2167.9 79.3678Z" fill="#E0E0E0"/>
<path d="M2419.62 224.546C2438.76 226.505 2458.04 226.505 2477.18 224.546C2458.04 222.588 2438.76 222.588 2419.62 224.546Z" fill="#E0E0E0"/>
<path d="M2174.68 224.546C2174.68 225.337 2226.03 226.015 2289.35 226.015C2352.68 226.015 2404.03 225.337 2404.03 224.546C2404.03 223.755 2352.68 223.077 2289.35 223.077C2226.03 223.077 2174.68 223.755 2174.68 224.546Z" fill="#E0E0E0"/>
<path d="M2252.8 291.43C2252.8 292.277 2304.15 292.899 2367.48 292.899C2430.8 292.899 2482.1 292.277 2482.1 291.43C2482.1 290.582 2430.8 289.961 2367.48 289.961C2304.15 289.961 2252.8 290.639 2252.8 291.43Z" fill="#E0E0E0"/>
<path d="M2387.48 120.379C2400.92 121.833 2414.46 122.324 2427.98 121.848C2441.48 122.325 2455 121.834 2468.43 120.379C2455 118.891 2441.48 118.4 2427.98 118.91C2414.46 118.401 2400.92 118.892 2387.48 120.379V120.379Z" fill="#E0E0E0"/>
<path d="M2389.51 180.484C2402.96 181.971 2416.49 182.462 2430.01 181.953C2443.53 182.462 2457.07 181.971 2470.52 180.484C2457.07 179.031 2443.53 178.54 2430.01 179.015C2416.49 178.54 2402.96 179.031 2389.51 180.484V180.484Z" fill="#E0E0E0"/>
<path d="M2321.04 266.292C2334.49 267.779 2348.03 268.27 2361.55 267.761C2375.07 268.27 2388.6 267.779 2402.05 266.292C2388.6 264.838 2375.07 264.348 2361.55 264.823C2348.03 264.348 2334.49 264.838 2321.04 266.292Z" fill="#E0E0E0"/>
<path d="M2092.83 120.379C2092.83 121.17 2139.15 121.848 2196.26 121.848C2253.37 121.848 2299.58 121.17 2299.58 120.379C2299.58 119.588 2253.26 118.911 2196.09 118.911C2138.92 118.911 2092.83 119.532 2092.83 120.379Z" fill="#E0E0E0"/>
<path d="M2156.72 183.93C2156.72 184.721 2203.04 185.399 2260.15 185.399C2317.26 185.399 2363.58 184.721 2363.58 183.93C2363.58 183.139 2317.26 182.461 2260.15 182.461C2203.04 182.461 2156.72 183.139 2156.72 183.93Z" fill="#E0E0E0"/>
<path d="M2085.48 266.292C2085.48 267.139 2131.8 267.761 2188.92 267.761C2246.03 267.761 2292.4 267.139 2292.4 266.292C2292.4 265.445 2246.08 264.823 2188.92 264.823C2131.75 264.823 2085.48 265.501 2085.48 266.292Z" fill="#E0E0E0"/>
<path d="M2274.38 339.898C2274.38 340.745 2320.71 341.367 2377.87 341.367C2435.04 341.367 2481.31 340.745 2481.31 339.898C2481.31 339.051 2434.98 338.429 2377.87 338.429C2320.76 338.429 2274.38 339.107 2274.38 339.898Z" fill="#E0E0E0"/>
<path d="M2045.38 339.898C2045.38 340.745 2091.7 341.367 2148.81 341.367C2205.92 341.367 2252.3 340.745 2252.3 339.898C2252.3 339.051 2205.98 338.429 2148.81 338.429C2091.64 338.429 2045.38 339.107 2045.38 339.898Z" fill="#E0E0E0"/>
<path d="M2274.44 363.849C2274.44 364.697 2320.76 365.318 2377.87 365.318C2434.98 365.318 2481.31 364.697 2481.31 363.849C2481.31 363.002 2435.04 362.381 2377.87 362.381C2320.71 362.381 2274.44 363.059 2274.44 363.849Z" fill="#E0E0E0"/>
<path d="M2264.39 137.609C2264.39 138.456 2310.71 139.077 2367.82 139.077C2424.93 139.077 2471.25 138.456 2471.25 137.609C2471.25 136.761 2424.93 136.14 2367.82 136.14C2310.71 136.14 2264.39 136.818 2264.39 137.609Z" fill="#E0E0E0"/>
<path d="M2319.52 120.605C2337.24 122.562 2355.12 122.562 2372.85 120.605C2355.12 118.648 2337.24 118.648 2319.52 120.605V120.605Z" fill="#E0E0E0"/>
<path d="M2426.4 244.261C2444.1 246.219 2461.96 246.219 2479.67 244.261C2461.96 242.303 2444.1 242.303 2426.4 244.261V244.261Z" fill="#E0E0E0"/>
<path d="M2427.64 266.292C2445.36 268.249 2463.24 268.249 2480.97 266.292C2463.24 264.335 2445.36 264.335 2427.64 266.292V266.292Z" fill="#E0E0E0"/>
<path d="M1965.95 43.2145C1965.95 44.0054 2094.86 44.6833 2254.05 44.6833C2413.24 44.6833 2542.14 44.0054 2542.14 43.2145C2542.14 42.4237 2413.24 41.7458 2254.05 41.7458C2094.86 41.7458 1965.95 42.3672 1965.95 43.2145Z" fill="#E0E0E0"/>
<path d="M2496.28 23.7256C2496.32 25.074 2496.76 26.379 2497.55 27.4761C2498.33 28.5732 2499.43 29.4134 2500.69 29.8907C2501.95 30.3681 2503.33 30.4613 2504.64 30.1586C2505.95 29.8558 2507.15 29.1708 2508.08 28.1897C2509 27.2085 2509.62 25.9753 2509.84 24.6452C2510.07 23.3151 2509.9 21.9477 2509.35 20.7153C2508.8 19.4829 2507.9 18.4406 2506.76 17.7197C2505.62 16.9989 2504.29 16.6317 2502.94 16.6644C2502.04 16.6862 2501.15 16.8867 2500.32 17.2542C2499.5 17.6218 2498.76 18.149 2498.14 18.8055C2497.52 19.4621 2497.03 20.2349 2496.71 21.0793C2496.39 21.9238 2496.25 22.8232 2496.28 23.7256V23.7256Z" fill="white"/>
<path d="M2466.96 23.7256C2467 25.067 2467.44 26.3656 2468.22 27.4596C2468.99 28.5535 2470.08 29.3943 2471.33 29.8772C2472.58 30.3601 2473.95 30.4636 2475.26 30.1749C2476.57 29.8862 2477.77 29.218 2478.7 28.2537C2479.63 27.2894 2480.26 26.0716 2480.51 24.7522C2480.75 23.4329 2480.61 22.0703 2480.08 20.8344C2479.56 19.5985 2478.68 18.5441 2477.57 17.8025C2476.45 17.061 2475.13 16.6652 2473.79 16.6644C2472.88 16.6639 2471.97 16.8479 2471.12 17.2055C2470.28 17.563 2469.52 18.0868 2468.88 18.7456C2468.24 19.4045 2467.74 20.1849 2467.41 21.0404C2467.08 21.896 2466.93 22.8092 2466.96 23.7256Z" fill="white"/>
<path d="M2437.64 23.7256C2437.68 25.067 2438.12 26.3656 2438.9 27.4596C2439.68 28.5535 2440.76 29.3943 2442.01 29.8772C2443.26 30.3601 2444.63 30.4636 2445.94 30.1749C2447.25 29.8862 2448.45 29.218 2449.38 28.2537C2450.32 27.2894 2450.94 26.0716 2451.19 24.7522C2451.44 23.4329 2451.29 22.0703 2450.76 20.8344C2450.24 19.5985 2449.37 18.5441 2448.25 17.8025C2447.13 17.061 2445.82 16.6652 2444.47 16.6644C2443.56 16.6639 2442.65 16.8479 2441.81 17.2055C2440.96 17.563 2440.2 18.0868 2439.56 18.7456C2438.92 19.4045 2438.42 20.1849 2438.09 21.0404C2437.76 21.896 2437.61 22.8092 2437.64 23.7256V23.7256Z" fill="white"/>
<path d="M448.414 1121.32H737.189V2056H448.414V1121.32Z" fill="#EBEBEB"/>
<path d="M203.25 1121.49H448.414V2055.83H203.25V1121.49Z" fill="#E0E0E0"/>
<path d="M482.986 1159.17H714.65V1360.5H482.986V1159.17Z" fill="#E0E0E0"/>
<path d="M482.986 1383.32H714.65V1584.65H482.986V1383.32Z" fill="#E0E0E0"/>
<path d="M482.986 1607.47H714.65V1808.8H482.986V1607.47Z" fill="#E0E0E0"/>
<path d="M482.986 1831.67H714.65V2033H482.986V1831.67Z" fill="#E0E0E0"/>
<path d="M598.79 1196.34C598.778 1197.94 599.243 1199.5 600.124 1200.84C601.004 1202.18 602.262 1203.22 603.737 1203.84C605.212 1204.46 606.838 1204.63 608.409 1204.32C609.979 1204.02 611.424 1203.25 612.559 1202.12C613.695 1201 614.47 1199.56 614.786 1197.99C615.103 1196.42 614.946 1194.79 614.336 1193.31C613.726 1191.84 612.691 1190.57 611.361 1189.68C610.032 1188.79 608.468 1188.31 606.868 1188.31C604.735 1188.31 602.689 1189.16 601.175 1190.66C599.662 1192.16 598.804 1194.2 598.79 1196.34Z" fill="#FAFAFA"/>
<path d="M598.79 1423.25C598.778 1424.86 599.243 1426.42 600.124 1427.76C601.004 1429.09 602.262 1430.14 603.737 1430.76C605.212 1431.38 606.838 1431.55 608.409 1431.24C609.979 1430.94 611.424 1430.17 612.559 1429.04C613.695 1427.92 614.47 1426.48 614.786 1424.91C615.103 1423.34 614.946 1421.71 614.336 1420.23C613.726 1418.75 612.691 1417.49 611.361 1416.6C610.032 1415.71 608.468 1415.23 606.868 1415.23C604.735 1415.23 602.689 1416.08 601.175 1417.58C599.662 1419.08 598.804 1421.12 598.79 1423.25V1423.25Z" fill="#FAFAFA"/>
<path d="M598.79 1649.89C598.79 1651.49 599.263 1653.05 600.151 1654.38C601.039 1655.71 602.3 1656.74 603.776 1657.35C605.252 1657.97 606.877 1658.13 608.444 1657.81C610.01 1657.5 611.45 1656.73 612.58 1655.6C613.709 1654.47 614.479 1653.03 614.79 1651.47C615.102 1649.9 614.942 1648.28 614.331 1646.8C613.719 1645.32 612.684 1644.06 611.356 1643.17C610.027 1642.29 608.465 1641.81 606.867 1641.81C604.725 1641.81 602.671 1642.66 601.156 1644.18C599.641 1645.69 598.79 1647.75 598.79 1649.89V1649.89Z" fill="#FAFAFA"/>
<path d="M598.79 1876.64C598.778 1878.24 599.243 1879.81 600.124 1881.14C601.004 1882.48 602.262 1883.52 603.737 1884.14C605.212 1884.76 606.838 1884.93 608.409 1884.63C609.979 1884.32 611.424 1883.56 612.559 1882.43C613.695 1881.3 614.47 1879.86 614.786 1878.29C615.103 1876.73 614.946 1875.1 614.336 1873.62C613.726 1872.14 612.691 1870.87 611.361 1869.98C610.032 1869.09 608.468 1868.62 606.868 1868.62C604.735 1868.62 602.689 1869.46 601.175 1870.96C599.662 1872.47 598.804 1874.51 598.79 1876.64V1876.64Z" fill="#FAFAFA"/>
<path d="M703.804 2056H737.189V2243.48H703.804V2056Z" fill="#E0E0E0"/>
<path d="M449.601 2056H482.986V2243.48H449.601V2056Z" fill="#E0E0E0"/>
<path d="M206.865 2056H240.25V2243.48H206.865V2056Z" fill="#E0E0E0"/>
<path d="M3163.08 2190.55C3171.61 2183.27 3190.7 2160.11 3176.01 2133.16C3170.37 2123.33 3159.07 2118.42 3148.73 2114.07C3138.07 2110.47 3128.02 2105.29 3118.9 2098.7C3102.69 2084.97 3098.23 2062.15 3087.5 2043.85C3075.12 2022.89 3052.08 2007.13 3027.73 2008.26C2999.88 2009.5 2976.89 2032.16 2966.1 2057.97C2955.31 2083.79 2955.2 2112.48 2954.8 2140.39C2954.8 2155.81 2955.37 2173.21 2966.78 2183.66C2977.23 2193.26 2993.04 2193.38 3007.28 2192.93L3159.8 2188.29" fill="#F5F5F5"/>
<path d="M2871.76 1773.49H3272.33L3200.14 2201.74C3198.67 2210.65 3194.71 2218.96 3188.71 2225.71C3182.71 2232.46 3174.92 2237.37 3166.24 2239.87L3164.83 2240.26C3163.66 2240.63 3162.47 2240.93 3161.27 2241.17C3158.41 2241.83 3155.5 2242.22 3152.57 2242.35V2242.75L3150.59 2242.47H2972.09C2968.79 2242.45 2965.49 2242.11 2962.26 2241.45C2951.85 2239.88 2942.25 2234.93 2934.93 2227.36C2927.62 2219.8 2922.99 2210.04 2921.75 2199.59L2887.07 1904.49L2885.49 1892.74L2871.76 1775.86V1773.49ZM2947.34 2046.67H2988.41L2984.29 1922.4H2936.67L2947.34 2046.67ZM2932.66 1922.4H2893.11L2907.8 2046.67H2943.56L2932.66 1922.4ZM3050.1 2184.45L3052.58 2076.5H2993.38L2997 2184.45H3050.1ZM3114.1 2076.5H3056.54L3054 2184.45H3105.68L3114.1 2076.5ZM3109.64 2184.45H3157.88C3162.46 2155.3 3168.44 2117.4 3174.83 2076.5H3118L3109.64 2184.45ZM3116.42 2046.67L3126.13 1922.4H3060.15L3057.27 2046.67H3116.42ZM3053.26 2046.67L3056.14 1922.4H2988.36L2992.54 2046.67H3053.26ZM3056.88 1892.57L3059.53 1777.45H2983.44L2987.28 1892.57H3056.88ZM3060.83 1892.57H3128.62L3137.6 1777.45H3063.66L3060.83 1892.57ZM3132.46 1892.57H3203.98C3206.52 1876.7 3208.95 1861.61 3211.09 1848.11C3218.55 1801.57 3221.38 1784.05 3222.9 1777.45H3141.27L3132.46 1892.57ZM3130.09 1922.4L3120.43 2046.67H3179.57C3181.55 2034.08 3183.58 2021.31 3185.62 2008.54C3190.25 1979.23 3194.88 1949.85 3199.23 1922.4H3130.09ZM3183.58 2046.67H3222.28L3243.18 1922.4H3203.41L3183.58 2046.67ZM3178.9 2076.5C3173.25 2113.84 3167.2 2150.67 3161.95 2184.45H3199.12L3217.31 2076.5H3178.9ZM2993.04 2184.45L2989.43 2076.5H2949.89L2959.15 2184.45H2993.04ZM2983.1 1892.74L2979.26 1777.61H2924.07L2933.9 1892.74H2983.1ZM3226.52 1777.61C3224.93 1785.97 3217.65 1831.28 3207.82 1892.74H3248.04L3267.47 1777.61H3226.52ZM2924.01 2184.34H2954.86L2945.59 2076.39H2911.19L2924.01 2184.34ZM2889.61 1892.46H2929.95L2920.06 1777.33H2876.05L2889.61 1892.46Z" fill="#E0E0E0"/>
<path d="M232.059 2243.43C232.059 2244.27 963.148 2244.9 1864.61 2244.9C2766.07 2244.9 3497.16 2244.27 3497.16 2243.43C3497.16 2242.58 2766.24 2241.96 1864.33 2241.96C962.413 2241.96 232.059 2242.64 232.059 2243.43Z" fill="#263238"/>
<path d="M1671.53 1021.5H2298L2251.68 575.234H1619.9L1671.53 1021.5Z" fill="#263238"/>
<path d="M1703.39 1021.5H2329.91L2283.59 575.234H1651.81L1703.39 1021.5Z" fill="#455A64"/>
<path d="M1726.66 1001.28H2308L2265.01 587.209H1678.76L1726.66 1001.28Z" fill="#F5F5F5"/>
<path d="M2244.95 932.248C2245.8 932.248 2240.04 869.827 2232.07 793.114C2224.11 716.401 2217.1 654.149 2216.31 654.262C2215.52 654.375 2221.23 716.401 2229.19 793.396C2237.16 870.392 2244.16 932.304 2244.95 932.248Z" fill="#263238"/>
<path d="M2139.15 668.102C2158.55 670.061 2178.1 670.061 2197.5 668.102C2178.1 666.144 2158.55 666.144 2139.15 668.102Z" fill="#263238"/>
<path d="M1890.82 668.102C1890.82 668.893 1942.85 669.571 2007.08 669.571C2071.3 669.571 2123.27 668.893 2123.27 668.102C2123.27 667.311 2071.25 666.634 2007.08 666.634C1942.9 666.634 1890.82 667.311 1890.82 668.102Z" fill="#EF5B00"/>
<path d="M2145.98 815.258C2165.4 817.216 2184.97 817.216 2204.39 815.258C2184.97 813.299 2165.4 813.299 2145.98 815.258V815.258Z" fill="#263238"/>
<path d="M1897.71 815.258C1897.71 816.105 1949.74 816.727 2013.91 816.727C2078.08 816.727 2130.17 816.105 2130.17 815.258C2130.17 814.41 2078.14 813.789 2013.91 813.789C1949.68 813.789 1897.71 814.467 1897.71 815.258Z" fill="#EF5B00"/>
<path d="M1976.91 883.102C1976.91 883.893 2028.94 884.571 2093.11 884.571C2157.28 884.571 2209.36 883.893 2209.36 883.102C2209.36 882.311 2157.34 881.633 2093.11 881.633C2028.88 881.633 1976.91 882.311 1976.91 883.102Z" fill="#EF5B00"/>
<path d="M2113.16 709.622C2126.8 711.146 2140.52 711.655 2154.23 711.147C2167.94 711.655 2181.67 711.146 2195.3 709.622C2181.66 708.17 2167.94 707.679 2154.23 708.153C2140.52 707.679 2126.8 708.17 2113.16 709.622V709.622Z" fill="#EF5B00"/>
<path d="M2115.48 770.575C2129.12 772.027 2142.84 772.518 2156.55 772.043C2170.25 772.518 2183.98 772.027 2197.61 770.575C2183.98 769.089 2170.25 768.598 2156.55 769.106C2142.84 768.598 2129.11 769.089 2115.48 770.575V770.575Z" fill="#EF5B00"/>
<path d="M2046.05 857.625C2059.69 859.077 2073.41 859.568 2087.12 859.094C2100.83 859.57 2114.55 859.08 2128.19 857.625C2114.55 856.136 2100.83 855.646 2087.12 856.156C2073.41 855.648 2059.69 856.139 2046.05 857.625V857.625Z" fill="#EF5B00"/>
<path d="M1814.73 709.622C1814.73 710.47 1861.67 711.148 1919.57 711.148C1977.47 711.148 2024.47 710.47 2024.47 709.622C2024.47 708.775 1977.53 708.154 1919.57 708.154C1861.61 708.154 1814.73 708.831 1814.73 709.622Z" fill="#263238"/>
<path d="M1879.47 774.077C1879.47 774.924 1926.41 775.546 1984.31 775.546C2042.21 775.546 2089.21 774.924 2089.21 774.077C2089.21 773.23 2042.27 772.608 1984.31 772.608C1926.35 772.608 1879.47 773.286 1879.47 774.077Z" fill="#263238"/>
<path d="M1807.27 857.625C1807.27 858.416 1854.21 859.094 1912.12 859.094C1970.02 859.094 2017.13 858.359 2017.13 857.625C2017.13 856.891 1970.19 856.156 1912.23 856.156C1854.27 856.156 1807.27 856.778 1807.27 857.625Z" fill="#263238"/>
<path d="M1998.77 932.248C1998.77 933.039 2045.77 933.716 2103.67 933.716C2161.57 933.716 2208.57 933.039 2208.57 932.248C2208.57 931.457 2161.57 930.779 2103.67 930.779C2045.77 930.779 1998.77 931.4 1998.77 932.248Z" fill="#263238"/>
<path d="M1766.83 932.248C1766.83 933.039 1813.77 933.716 1871.67 933.716C1929.57 933.716 1976.57 933.039 1976.57 932.248C1976.57 931.457 1929.63 930.779 1871.67 930.779C1813.71 930.779 1766.83 931.4 1766.83 932.248Z" fill="#263238"/>
<path d="M1998.83 956.482C1998.83 957.329 2045.77 957.951 2103.67 957.951C2161.57 957.951 2208.57 957.329 2208.57 956.482C2208.57 955.635 2161.63 955.013 2103.67 955.013C2045.71 955.013 1998.83 955.691 1998.83 956.482Z" fill="#263238"/>
<path d="M1988.6 727.134C1988.6 727.925 2035.55 728.603 2093.45 728.603C2151.35 728.603 2198.35 727.925 2198.35 727.134C2198.35 726.343 2151.41 725.665 2093.45 725.665C2035.49 725.665 1988.6 726.343 1988.6 727.134Z" fill="#263238"/>
<path d="M2044.53 709.905C2062.49 711.863 2080.62 711.863 2098.59 709.905C2080.63 707.871 2062.49 707.871 2044.53 709.905V709.905Z" fill="#455A64"/>
<path d="M2152.71 835.255C2170.65 837.214 2188.76 837.214 2206.71 835.255C2188.76 833.297 2170.65 833.297 2152.71 835.255V835.255Z" fill="#455A64"/>
<path d="M2154.17 857.625C2172.12 859.583 2190.23 859.583 2208.18 857.625C2190.23 855.667 2172.12 855.667 2154.17 857.625V857.625Z" fill="#455A64"/>
<path d="M1686.05 631.441C1686.05 632.232 1816.76 632.909 1978.04 632.909C2139.32 632.909 2270.03 632.232 2270.03 631.441C2270.03 630.65 2139.32 629.915 1978.04 629.915C1816.76 629.915 1686.05 630.593 1686.05 631.441Z" fill="#263238"/>
<path d="M2223.71 611.669C2223.71 613.046 2224.12 614.391 2224.89 615.535C2225.65 616.679 2226.74 617.57 2228.02 618.094C2229.29 618.618 2230.69 618.752 2232.04 618.48C2233.39 618.207 2234.62 617.539 2235.59 616.562C2236.56 615.585 2237.22 614.341 2237.48 612.99C2237.74 611.638 2237.6 610.239 2237.06 608.971C2236.53 607.702 2235.63 606.621 2234.48 605.864C2233.33 605.108 2231.98 604.71 2230.6 604.721C2229.69 604.721 2228.79 604.901 2227.95 605.251C2227.11 605.601 2226.35 606.114 2225.71 606.76C2225.07 607.405 2224.56 608.172 2224.22 609.015C2223.88 609.857 2223.71 610.759 2223.71 611.669V611.669Z" fill="white"/>
<path d="M2194 611.669C2194 613.046 2194.41 614.391 2195.17 615.535C2195.94 616.679 2197.03 617.57 2198.3 618.094C2199.57 618.618 2200.97 618.752 2202.32 618.48C2203.67 618.207 2204.91 617.539 2205.88 616.562C2206.85 615.585 2207.51 614.341 2207.77 612.99C2208.03 611.638 2207.89 610.239 2207.35 608.971C2206.82 607.702 2205.92 606.621 2204.77 605.864C2203.62 605.108 2202.27 604.71 2200.89 604.721C2199.98 604.721 2199.08 604.901 2198.24 605.251C2197.4 605.601 2196.64 606.114 2196 606.76C2195.36 607.405 2194.85 608.172 2194.51 609.015C2194.16 609.857 2193.99 610.759 2194 611.669V611.669Z" fill="white"/>
<path d="M2164 611.669C2164 613.046 2164.41 614.391 2165.18 615.535C2165.94 616.679 2167.03 617.57 2168.31 618.094C2169.58 618.618 2170.98 618.752 2172.33 618.48C2173.68 618.207 2174.92 617.539 2175.88 616.562C2176.85 615.585 2177.51 614.341 2177.77 612.99C2178.03 611.638 2177.89 610.239 2177.35 608.971C2176.82 607.702 2175.92 606.621 2174.77 605.864C2173.62 605.108 2172.27 604.71 2170.9 604.721C2169.99 604.721 2169.08 604.901 2168.24 605.251C2167.4 605.601 2166.64 606.114 2166 606.76C2165.36 607.405 2164.85 608.172 2164.51 609.015C2164.17 609.857 2164 610.759 2164 611.669V611.669Z" fill="white"/>
<path d="M848.53 1035.06H1507.54L1458.84 565.574H794.187L848.53 1035.06Z" fill="#263238"/>
<path d="M882.085 1035.06H1541.09L1492.34 565.574H827.742L882.085 1035.06Z" fill="#455A64"/>
<path d="M906.489 1013.76H1517.99L1472.8 578.171H856.1L906.489 1013.76Z" fill="#EBEBEB"/>
<path d="M1451.39 934.564C1452.18 934.564 1446.08 868.923 1437.77 788.199C1429.47 707.476 1422.01 642.061 1421.22 642.174C1420.43 642.287 1426.53 707.758 1434.84 788.538C1443.14 869.318 1450.6 934.62 1451.39 934.564Z" fill="#263238"/>
<path d="M1340.05 656.748C1360.47 658.706 1381.03 658.706 1401.45 656.748C1381.03 654.714 1360.46 654.714 1340.05 656.748V656.748Z" fill="#263238"/>
<path d="M1078.84 656.748C1078.84 657.539 1133.58 658.217 1201.14 658.217C1268.7 658.217 1323.38 657.539 1323.38 656.748C1323.38 655.957 1268.64 655.223 1201.14 655.223C1133.63 655.223 1078.84 655.901 1078.84 656.748Z" fill="#EF5B00"/>
<path d="M1347.28 811.53C1367.7 813.488 1388.26 813.488 1408.68 811.53C1388.26 809.571 1367.7 809.571 1347.28 811.53V811.53Z" fill="#263238"/>
<path d="M1086.07 811.53C1086.07 812.32 1140.86 812.998 1208.37 812.998C1275.87 812.998 1330.61 812.32 1330.61 811.53C1330.61 810.739 1275.87 810.061 1208.37 810.061C1140.86 810.061 1086.07 810.739 1086.07 811.53Z" fill="#EF5B00"/>
<path d="M1169.39 882.876C1169.39 883.723 1224.13 884.345 1291.63 884.345C1359.14 884.345 1413.93 883.723 1413.93 882.876C1413.93 882.029 1359.2 881.407 1291.63 881.407C1224.07 881.407 1169.39 882.085 1169.39 882.876Z" fill="#EF5B00"/>
<path d="M1312.99 700.188C1341.75 702.147 1370.6 702.147 1399.36 700.188C1370.6 698.23 1341.75 698.23 1312.99 700.188V700.188Z" fill="#EF5B00"/>
<path d="M1315.19 764.474C1343.95 766.507 1372.81 766.507 1401.56 764.474C1372.81 762.515 1343.95 762.515 1315.19 764.474V764.474Z" fill="#EF5B00"/>
<path d="M1242.15 856.1C1270.91 858.058 1299.76 858.058 1328.52 856.1C1299.76 854.142 1270.91 854.142 1242.15 856.1V856.1Z" fill="#EF5B00"/>
<path d="M998.792 700.188C998.792 701.036 1048.16 701.657 1109.12 701.657C1170.07 701.657 1219.44 701.036 1219.44 700.188C1219.44 699.341 1170.07 698.72 1109.12 698.72C1048.16 698.72 998.792 699.624 998.792 700.188Z" fill="#263238"/>
<path d="M1066.86 767.976C1066.86 768.823 1116.29 769.445 1177.19 769.445C1238.08 769.445 1287.51 768.823 1287.51 767.976C1287.51 767.129 1238.14 766.507 1177.19 766.507C1116.23 766.507 1066.86 767.411 1066.86 767.976Z" fill="#263238"/>
<path d="M990.941 856.1C990.941 856.89 1040.37 857.568 1101.26 857.568C1162.16 857.568 1211.59 856.89 1211.59 856.1C1211.59 855.309 1162.22 854.631 1101.26 854.631C1040.31 854.631 990.941 855.252 990.941 856.1Z" fill="#263238"/>
<path d="M1192.38 934.564C1192.38 935.355 1241.75 936.033 1302.71 936.033C1363.66 936.033 1413.03 935.355 1413.03 934.564C1413.03 933.773 1363.6 933.095 1302.71 933.095C1241.81 933.095 1192.38 933.773 1192.38 934.564Z" fill="#263238"/>
<path d="M948.404 934.564C948.404 935.355 997.832 936.033 1058.73 936.033C1119.62 936.033 1169.05 935.355 1169.05 934.564C1169.05 933.773 1119.68 933.095 1058.73 933.095C997.776 933.095 948.404 933.773 948.404 934.564Z" fill="#263238"/>
<path d="M1192.38 960.041C1192.38 960.832 1241.75 961.509 1302.71 961.509C1363.66 961.509 1413.03 960.832 1413.03 960.041C1413.03 959.25 1363.66 958.572 1302.71 958.572C1241.75 958.572 1192.38 959.306 1192.38 960.041Z" fill="#263238"/>
<path d="M1181.71 718.83C1181.71 719.621 1231.08 720.299 1292.03 720.299C1352.98 720.299 1402.35 719.621 1402.35 718.83C1402.35 718.039 1352.98 717.361 1292.03 717.361C1231.08 717.361 1181.71 718.039 1181.71 718.83Z" fill="#263238"/>
<path d="M1240.57 700.64C1259.46 702.598 1278.5 702.598 1297.4 700.64C1278.5 698.682 1259.46 698.682 1240.57 700.64V700.64Z" fill="#455A64"/>
<path d="M1354.51 832.544C1373.4 834.502 1392.44 834.502 1411.34 832.544C1392.44 830.585 1373.4 830.585 1354.51 832.544V832.544Z" fill="#455A64"/>
<path d="M1355.86 856.1C1374.76 858.058 1393.8 858.058 1412.69 856.1C1393.8 854.142 1374.76 854.142 1355.86 856.1V856.1Z" fill="#455A64"/>
<path d="M863.444 618.109C863.444 618.956 1000.94 619.578 1170.58 619.578C1340.22 619.578 1477.71 618.956 1477.71 618.109C1477.71 617.262 1340.22 616.64 1170.58 616.64C1000.94 616.64 863.444 617.318 863.444 618.109Z" fill="#263238"/>
<path d="M1429.02 597.377C1429.02 598.819 1429.44 600.228 1430.25 601.426C1431.05 602.624 1432.18 603.558 1433.52 604.11C1434.85 604.661 1436.31 604.806 1437.73 604.525C1439.14 604.243 1440.44 603.549 1441.46 602.53C1442.48 601.511 1443.17 600.213 1443.45 598.799C1443.73 597.385 1443.59 595.92 1443.04 594.589C1442.49 593.257 1441.55 592.119 1440.35 591.318C1439.15 590.518 1437.75 590.09 1436.3 590.09C1435.35 590.083 1434.39 590.266 1433.51 590.63C1432.62 590.993 1431.81 591.53 1431.13 592.208C1430.46 592.886 1429.92 593.692 1429.56 594.58C1429.19 595.467 1429.01 596.418 1429.02 597.377Z" fill="white"/>
<path d="M1397.78 597.377C1397.78 598.819 1398.21 600.228 1399.01 601.426C1399.81 602.624 1400.95 603.558 1402.28 604.11C1403.61 604.661 1405.07 604.806 1406.49 604.525C1407.9 604.243 1409.2 603.549 1410.22 602.53C1411.24 601.511 1411.93 600.213 1412.21 598.799C1412.49 597.385 1412.35 595.92 1411.8 594.589C1411.25 593.257 1410.31 592.119 1409.11 591.318C1407.92 590.518 1406.51 590.09 1405.07 590.09C1404.11 590.083 1403.16 590.266 1402.27 590.63C1401.38 590.993 1400.57 591.53 1399.9 592.208C1399.22 592.886 1398.68 593.692 1398.32 594.58C1397.95 595.467 1397.77 596.418 1397.78 597.377V597.377Z" fill="white"/>
<path d="M1366.48 597.377C1366.48 598.819 1366.91 600.228 1367.71 601.426C1368.51 602.624 1369.65 603.558 1370.98 604.11C1372.31 604.661 1373.78 604.806 1375.19 604.525C1376.61 604.243 1377.9 603.549 1378.92 602.53C1379.94 601.511 1380.64 600.213 1380.92 598.799C1381.2 597.385 1381.05 595.92 1380.5 594.589C1379.95 593.257 1379.02 592.119 1377.82 591.318C1376.62 590.518 1375.21 590.09 1373.77 590.09C1372.81 590.083 1371.86 590.266 1370.97 590.63C1370.09 590.993 1369.28 591.53 1368.6 592.208C1367.92 592.886 1367.39 593.692 1367.02 594.58C1366.66 595.467 1366.48 596.418 1366.48 597.377Z" fill="white"/>
<path d="M1224.52 479.314H1853.88L1807.33 31.0128H1172.67L1224.52 479.314Z" fill="#263238"/>
<path d="M1256.55 479.314H1885.91L1839.36 31.0128H1204.7L1256.55 479.314Z" fill="#455A64"/>
<path d="M1279.94 459.034H1863.87L1820.72 43.045H1231.81L1279.94 459.034Z" fill="#FAFAFA"/>
<path d="M1799.7 389.496C1800.49 389.496 1794.67 326.792 1786.71 249.741C1778.74 172.689 1771.68 110.155 1770.84 110.268C1769.99 110.381 1775.86 172.915 1783.83 250.023C1791.79 327.131 1798.85 389.496 1799.7 389.496Z" fill="#263238"/>
<path d="M1693.33 123.995C1712.83 125.953 1732.47 125.953 1751.97 123.995C1732.47 122.036 1712.83 122.036 1693.33 123.995V123.995Z" fill="#263238"/>
<path d="M1443.93 123.995C1443.93 124.785 1496.18 125.463 1560.69 125.463C1625.21 125.463 1677.46 124.785 1677.46 123.995C1677.46 123.204 1625.21 122.526 1560.69 122.526C1496.18 122.526 1443.93 123.034 1443.93 123.995Z" fill="#EF5B00"/>
<path d="M1700.28 271.715C1719.78 273.673 1739.42 273.673 1758.92 271.715C1739.42 269.757 1719.78 269.757 1700.28 271.715V271.715Z" fill="#263238"/>
<path d="M1450.82 271.715C1450.82 272.506 1503.13 273.184 1567.59 273.184C1632.04 273.184 1684.35 272.506 1684.35 271.715C1684.35 270.924 1632.1 270.246 1567.59 270.246C1503.08 270.246 1450.82 270.868 1450.82 271.715Z" fill="#EF5B00"/>
<path d="M1530.36 339.841C1530.36 340.632 1582.67 341.31 1647.12 341.31C1711.58 341.31 1763.89 340.632 1763.89 339.841C1763.89 339.051 1711.63 338.373 1647.12 338.373C1582.61 338.373 1530.36 339.051 1530.36 339.841Z" fill="#EF5B00"/>
<path d="M1667.52 165.628C1694.97 167.586 1722.53 167.586 1749.99 165.628C1722.53 163.669 1694.97 163.669 1667.52 165.628V165.628Z" fill="#EF5B00"/>
<path d="M1669.61 226.806C1697.06 228.764 1724.62 228.764 1752.08 226.806C1724.62 224.847 1697.06 224.847 1669.61 226.806V226.806Z" fill="#EF5B00"/>
<path d="M1599.9 314.252C1627.36 316.21 1654.92 316.21 1682.37 314.252C1654.92 312.293 1627.36 312.293 1599.9 314.252V314.252Z" fill="#EF5B00"/>
<path d="M1367.5 165.628C1367.5 166.418 1414.67 167.096 1472.85 167.096C1531.04 167.096 1578.21 166.418 1578.21 165.628C1578.21 164.837 1531.09 164.159 1472.85 164.159C1414.61 164.159 1367.5 164.78 1367.5 165.628Z" fill="#263238"/>
<path d="M1432.52 230.365C1432.52 231.155 1479.69 231.833 1537.87 231.833C1596.06 231.833 1643.23 231.155 1643.23 230.365C1643.23 229.574 1596.06 228.896 1537.87 228.896C1479.69 228.896 1432.52 229.517 1432.52 230.365Z" fill="#263238"/>
<path d="M1359.99 314.252C1359.99 315.042 1407.16 315.72 1465.34 315.72C1523.52 315.72 1570.69 315.042 1570.69 314.252C1570.69 313.461 1523.52 312.783 1465.34 312.783C1407.16 312.783 1359.99 313.404 1359.99 314.252Z" fill="#263238"/>
<path d="M1552.39 389.496C1552.39 390.287 1599.56 390.964 1657.74 390.964C1715.93 390.964 1762.93 390.004 1762.93 389.496C1762.93 388.987 1715.76 388.027 1657.57 388.027C1599.39 388.027 1552.39 388.366 1552.39 389.496Z" fill="#263238"/>
<path d="M1319.37 389.496C1319.37 390.287 1366.54 390.964 1424.72 390.964C1482.91 390.964 1530.08 390.287 1530.08 389.496C1530.08 388.705 1482.91 388.027 1424.72 388.027C1366.54 388.027 1319.37 388.366 1319.37 389.496Z" fill="#263238"/>
<path d="M1552.39 413.56C1552.39 414.408 1599.56 415.029 1657.74 415.029C1715.93 415.029 1763.1 414.408 1763.1 413.56C1763.1 412.713 1715.93 412.092 1657.74 412.092C1599.56 412.092 1552.39 412.769 1552.39 413.56Z" fill="#263238"/>
<path d="M1542.17 183.196C1542.17 183.987 1589.33 184.664 1647.52 184.664C1705.7 184.664 1752.87 183.987 1752.87 183.196C1752.87 182.405 1705.7 181.727 1647.52 181.727C1589.33 181.727 1542.17 182.348 1542.17 183.196Z" fill="#263238"/>
<path d="M1598.32 165.853C1616.36 167.812 1634.56 167.812 1652.6 165.853C1634.56 163.895 1616.36 163.895 1598.32 165.853V165.853Z" fill="#455A64"/>
<path d="M1707.17 291.769C1725.21 293.727 1743.42 293.727 1761.46 291.769C1743.42 289.81 1725.21 289.81 1707.17 291.769V291.769Z" fill="#455A64"/>
<path d="M1708.41 314.252C1726.46 316.21 1744.66 316.21 1762.7 314.252C1744.66 312.293 1726.46 312.293 1708.41 314.252V314.252Z" fill="#455A64"/>
<path d="M1238.25 86.994C1238.25 87.8413 1369.53 88.5192 1531.49 88.5192C1693.45 88.5192 1825.07 87.8413 1825.07 86.994C1825.07 86.1466 1693.78 85.5253 1531.72 85.5253C1369.65 85.5253 1238.25 86.2031 1238.25 86.994Z" fill="#263238"/>
<path d="M1785.24 74.1143C1781.4 74.1143 1778.29 71.0035 1778.29 67.1661C1778.29 63.3287 1781.4 60.2179 1785.24 60.2179C1789.08 60.2179 1792.19 63.3287 1792.19 67.1661C1792.19 71.0035 1789.08 74.1143 1785.24 74.1143Z" fill="white"/>
<path d="M1755.41 74.1143C1751.58 74.1143 1748.47 71.0035 1748.47 67.1661C1748.47 63.3287 1751.58 60.2179 1755.41 60.2179C1759.25 60.2179 1762.36 63.3287 1762.36 67.1661C1762.36 71.0035 1759.25 74.1143 1755.41 74.1143Z" fill="white"/>
<path d="M1725.59 74.1143C1721.75 74.1143 1718.64 71.0035 1718.64 67.1661C1718.64 63.3287 1721.75 60.2179 1725.59 60.2179C1729.43 60.2179 1732.54 63.3287 1732.54 67.1661C1732.54 71.0035 1729.43 74.1143 1725.59 74.1143Z" fill="white"/>
<path d="M2290.65 2172.82H2339.69V2239.7H2290.65V2172.82Z" fill="#263238"/>
<path d="M2027.81 1392.36H1592.78V1371.17H2027.81V1392.36Z" fill="#263238"/>
<path d="M1525.39 1392.36L1443.76 1086.58H1783.49L1857.38 1392.36H1525.39Z" fill="#263238"/>
<path d="M1836.99 1369.25H1533.52L1462.91 1100.7H1767.95L1836.99 1369.25Z" fill="#F5F5F5"/>
<path d="M1760.39 1152.73L1779.2 1228.76H1577.98L1556.51 1152.73H1760.39Z" fill="#E0E0E0"/>
<path d="M1599.11 1142.67C1599.11 1143.52 1634.36 1144.14 1677.91 1144.14C1721.46 1144.14 1756.71 1143.52 1756.71 1142.67C1756.71 1141.82 1721.46 1141.2 1677.91 1141.2C1634.36 1141.2 1599.11 1141.88 1599.11 1142.67Z" fill="#455A64"/>
<path d="M1690.68 1167.24C1711.82 1169.2 1733.09 1169.2 1754.23 1167.24C1733.09 1165.29 1711.82 1165.29 1690.68 1167.24V1167.24Z" fill="#263238"/>
<path d="M1639.72 1166.06C1653.44 1168.02 1667.36 1168.02 1681.07 1166.06C1667.36 1164.1 1653.44 1164.1 1639.72 1166.06Z" fill="#263238"/>
<path d="M1582.16 1181.03C1582.16 1181.88 1621.08 1182.55 1669.1 1182.55C1717.11 1182.55 1756.04 1181.88 1756.04 1181.03C1756.04 1180.18 1717.11 1179.56 1669.1 1179.56C1621.08 1179.56 1582.16 1180.35 1582.16 1181.03Z" fill="#455A64"/>
<path d="M1703.27 1193.63C1722.05 1195.6 1740.99 1195.6 1759.76 1193.63C1740.99 1191.65 1722.05 1191.65 1703.27 1193.63V1193.63Z" fill="#EF5B00"/>
<path d="M1597.75 1211.65C1597.75 1212.44 1633.85 1213.11 1678.36 1213.11C1722.88 1213.11 1759.03 1212.44 1759.03 1211.65C1759.03 1210.85 1722.93 1210.18 1678.36 1210.18C1633.79 1210.18 1597.75 1210.8 1597.75 1211.65Z" fill="#455A64"/>
<path d="M1716.44 1250.57C1737.1 1252.51 1757.91 1252.51 1778.57 1250.57C1757.91 1248.62 1737.1 1248.62 1716.44 1250.57V1250.57Z" fill="#455A64"/>
<path d="M1663.11 1250.85C1670.12 1252.22 1677.28 1252.65 1684.41 1252.15C1691.53 1252.58 1698.68 1252.01 1705.65 1250.45C1698.64 1249.09 1691.48 1248.65 1684.35 1249.15C1677.23 1248.72 1670.08 1249.29 1663.11 1250.85Z" fill="#263238"/>
<path d="M1633 1249.38C1633 1250.23 1637.07 1250.85 1642.04 1250.85C1647.01 1250.85 1651.02 1250.23 1651.02 1249.38C1651.02 1248.53 1646.95 1247.91 1642.04 1247.91C1637.12 1247.91 1633 1248.59 1633 1249.38Z" fill="#263238"/>
<path d="M1757.79 1266.16C1757.79 1267.01 1762.25 1267.63 1767.73 1267.63C1773.21 1267.63 1777.61 1267.01 1777.61 1266.16C1777.61 1265.31 1773.15 1264.69 1767.73 1264.69C1762.31 1264.69 1757.79 1265.37 1757.79 1266.16Z" fill="#EF5B00"/>
<path d="M1698.47 1266.16C1714.19 1268.12 1730.09 1268.12 1745.81 1266.16C1730.09 1264.2 1714.19 1264.2 1698.47 1266.16Z" fill="#263238"/>
<path d="M1557.02 1264.35C1557.02 1265.2 1585.27 1265.82 1620.23 1265.82C1655.2 1265.82 1683.5 1265.2 1683.5 1264.35C1683.5 1263.5 1655.26 1262.88 1620.23 1262.88C1585.21 1262.88 1557.02 1263.56 1557.02 1264.35Z" fill="#455A64"/>
<path d="M1760.84 1282.37C1760.84 1283.16 1765.36 1283.84 1771.01 1283.84C1776.65 1283.84 1781.17 1283.16 1781.17 1282.37C1781.17 1281.58 1776.65 1280.9 1771.01 1280.9C1765.36 1280.9 1760.84 1281.52 1760.84 1282.37Z" fill="#263238"/>
<path d="M1729.65 1282.03C1733.57 1283.49 1737.77 1283.99 1741.91 1283.5C1746.08 1283.99 1750.3 1283.48 1754.23 1282.03C1750.29 1280.61 1746.08 1280.11 1741.91 1280.56C1737.77 1280.1 1733.57 1280.61 1729.65 1282.03V1282.03Z" fill="#263238"/>
<path d="M1636.73 1280.56C1663.26 1282.52 1689.9 1282.52 1716.44 1280.56C1689.9 1278.6 1663.26 1278.6 1636.73 1280.56V1280.56Z" fill="#455A64"/>
<path d="M1685.88 1308.75C1701.91 1310.2 1718.02 1310.69 1734.12 1310.22C1750.21 1310.7 1766.32 1310.21 1782.36 1308.75C1766.33 1307.26 1750.21 1306.77 1734.12 1307.28C1718.02 1306.77 1701.91 1307.26 1685.88 1308.75V1308.75Z" fill="#455A64"/>
<path d="M1629.56 1307.51C1644.06 1309.47 1658.77 1309.47 1673.28 1307.51C1658.77 1305.55 1644.06 1305.55 1629.56 1307.51V1307.51Z" fill="#EF5B00"/>
<path d="M1545.89 1307.51C1570.03 1309.47 1594.29 1309.47 1618.43 1307.51C1594.29 1305.55 1570.03 1305.55 1545.89 1307.51Z" fill="#263238"/>
<path d="M1565.21 1141.49C1565.21 1142.33 1568.6 1142.95 1572.73 1142.95C1576.85 1142.95 1580.24 1142.33 1580.24 1141.49C1580.24 1140.64 1576.85 1140.02 1572.73 1140.02C1568.6 1140.02 1565.21 1140.81 1565.21 1141.49Z" fill="#263238"/>
<path d="M1718.24 1131.32C1729.15 1133.28 1740.32 1133.28 1751.23 1131.32C1740.32 1129.36 1729.15 1129.36 1718.24 1131.32V1131.32Z" fill="#EF5B00"/>
<path d="M1468 1120.02H1773.04L1767.9 1100.7H1462.85L1468 1120.02Z" fill="#EBEBEB"/>
<path d="M1755.08 1113.81C1753.23 1113.81 1751.74 1112.31 1751.74 1110.47C1751.74 1108.63 1753.23 1107.14 1755.08 1107.14C1756.92 1107.14 1758.41 1108.63 1758.41 1110.47C1758.41 1112.31 1756.92 1113.81 1755.08 1113.81Z" fill="#FAFAFA"/>
<path d="M1743.61 1113.81C1741.77 1113.81 1740.27 1112.31 1740.27 1110.47C1740.27 1108.63 1741.77 1107.14 1743.61 1107.14C1745.45 1107.14 1746.94 1108.63 1746.94 1110.47C1746.94 1112.31 1745.45 1113.81 1743.61 1113.81Z" fill="#FAFAFA"/>
<path d="M1732.14 1113.81C1730.3 1113.81 1728.81 1112.31 1728.81 1110.47C1728.81 1108.63 1730.3 1107.14 1732.14 1107.14C1733.98 1107.14 1735.47 1108.63 1735.47 1110.47C1735.47 1112.31 1733.98 1113.81 1732.14 1113.81Z" fill="#FAFAFA"/>
<path d="M1096.24 1420.83H1819.53V1842.86H1096.24V1420.83Z" fill="#263238"/>
<path d="M1490.03 1420.83H1819.53V1842.86H1490.03V1420.83Z" fill="#455A64"/>
<path d="M1523.58 1564.14C1523.67 1563.43 1523.67 1562.71 1523.58 1561.99V1555.84C1523.58 1550.19 1523.58 1542.45 1523.86 1532.39C1523.86 1512 1524.2 1482.85 1524.43 1446.92L1523.35 1448L1788.4 1448.39L1786.94 1446.92V1477.37C1786.94 1487.43 1786.94 1497.43 1786.94 1507.2C1786.94 1526.8 1786.94 1545.84 1786.94 1564.03L1788.29 1562.67L1598.43 1563.29L1543.3 1563.69H1528.5H1524.6H1523.24H1524.43H1528.16H1542.67L1597.53 1564.03L1788.29 1564.71H1789.7V1563.29C1789.7 1545.1 1789.7 1526.07 1789.7 1506.46V1447.04L1788.23 1445.57L1523.19 1445.96H1522.11V1447.04C1522.39 1483.25 1522.56 1512.62 1522.73 1533.13C1522.73 1543.07 1522.73 1550.87 1522.73 1556.34V1562.33C1523.52 1563.52 1523.58 1564.48 1523.58 1564.14Z" fill="#263238"/>
<path d="M1644.86 1505.56C1645.6 1502.36 1647.39 1499.49 1649.95 1497.43C1651.32 1496.46 1652.91 1495.85 1654.57 1495.65C1656.24 1495.44 1657.93 1495.64 1659.49 1496.24C1661.38 1496.97 1663 1498.24 1664.15 1499.91C1665.3 1501.57 1665.92 1503.54 1665.93 1505.56C1665.91 1507.58 1665.28 1509.54 1664.13 1511.2C1662.99 1512.86 1661.37 1514.14 1659.49 1514.88C1657.92 1515.45 1656.23 1515.64 1654.57 1515.42C1652.91 1515.21 1651.32 1514.6 1649.95 1513.64C1647.41 1511.56 1645.62 1508.7 1644.86 1505.5C1644.86 1505.5 1644.36 1506.52 1644.86 1508.39C1645.32 1511.09 1646.74 1513.54 1648.87 1515.28C1650.49 1516.6 1652.42 1517.48 1654.48 1517.85C1656.53 1518.21 1658.65 1518.05 1660.62 1517.37C1663.1 1516.52 1665.24 1514.92 1666.76 1512.79C1668.28 1510.67 1669.1 1508.12 1669.1 1505.5C1669.1 1502.89 1668.28 1500.34 1666.76 1498.21C1665.24 1496.09 1663.1 1494.49 1660.62 1493.64C1658.66 1492.95 1656.54 1492.78 1654.49 1493.13C1652.43 1493.49 1650.5 1494.36 1648.87 1495.67C1646.74 1497.41 1645.32 1499.86 1644.86 1502.57C1644.3 1504.54 1644.69 1505.56 1644.86 1505.56Z" fill="#263238"/>
<path d="M1523.58 1693.22C1523.66 1692.49 1523.66 1691.75 1523.58 1691.02V1684.86C1523.58 1679.21 1523.58 1671.47 1523.86 1661.42C1523.86 1641.08 1524.2 1611.93 1524.43 1575.95L1523.35 1577.02L1788.4 1577.47L1786.94 1576V1606.45C1786.94 1616.56 1786.94 1626.5 1786.94 1636.33C1786.94 1655.94 1786.94 1674.97 1786.94 1693.16L1788.29 1691.75L1598.43 1692.43L1543.3 1692.82H1528.5H1524.6H1523.24H1524.43H1528.16H1542.67L1597.53 1693.22L1788.29 1693.9H1789.7V1692.48C1789.7 1674.29 1789.7 1655.26 1789.7 1635.66V1576.06C1790.04 1576.06 1786.94 1573.24 1788.23 1574.53L1523.19 1574.99H1522.11V1575.78C1522.39 1612.04 1522.56 1641.42 1522.73 1661.92C1522.73 1671.87 1522.73 1679.6 1522.73 1685.14V1691.07C1523.52 1692.6 1523.58 1693.28 1523.58 1693.22Z" fill="#263238"/>
<path d="M1644.86 1634.58C1645.66 1631.45 1647.44 1628.66 1649.95 1626.62C1651.45 1625.54 1653.22 1624.9 1655.07 1624.76C1656.91 1624.63 1658.76 1625 1660.41 1625.84C1662.06 1626.67 1663.44 1627.95 1664.42 1629.52C1665.39 1631.09 1665.92 1632.9 1665.93 1634.75C1665.92 1636.77 1665.3 1638.74 1664.15 1640.41C1663 1642.07 1661.38 1643.35 1659.49 1644.07C1657.93 1644.67 1656.24 1644.87 1654.57 1644.67C1652.91 1644.46 1651.32 1643.85 1649.95 1642.89C1647.4 1640.81 1645.61 1637.95 1644.86 1634.75C1644.86 1634.75 1644.36 1635.77 1644.86 1637.63C1645.32 1640.34 1646.74 1642.79 1648.87 1644.52C1650.49 1645.85 1652.42 1646.73 1654.48 1647.1C1656.53 1647.46 1658.65 1647.3 1660.62 1646.62C1663.1 1645.77 1665.24 1644.17 1666.76 1642.04C1668.28 1639.91 1669.1 1637.37 1669.1 1634.75C1669.1 1632.14 1668.28 1629.59 1666.76 1627.46C1665.24 1625.34 1663.1 1623.74 1660.62 1622.89C1658.65 1622.21 1656.53 1622.04 1654.48 1622.41C1652.42 1622.77 1650.49 1623.66 1648.87 1624.98C1646.74 1626.71 1645.32 1629.16 1644.86 1631.87C1644.3 1633.57 1644.69 1634.58 1644.86 1634.58Z" fill="#263238"/>
<path d="M1523.58 1822.24C1523.67 1821.53 1523.67 1820.81 1523.58 1820.09V1813.94C1523.58 1808.29 1523.58 1800.55 1523.86 1790.49C1523.86 1770.1 1524.2 1740.95 1524.43 1705.03L1523.35 1706.1L1788.4 1706.49L1786.94 1705.03V1735.47C1786.94 1745.53 1786.94 1755.53 1786.94 1765.3C1786.94 1784.9 1786.94 1803.94 1786.94 1822.13L1788.29 1820.77L1598.43 1821.39L1543.3 1821.79H1528.5H1524.6H1523.24H1524.43H1528.16H1542.67L1597.53 1822.13L1788.29 1822.81H1789.7V1821.39C1789.7 1803.2 1789.7 1784.17 1789.7 1764.57V1705.14L1788.23 1703.67L1523.19 1704.06H1522.11V1705.14C1522.39 1741.35 1522.56 1770.72 1522.73 1791.23C1522.73 1801.17 1522.73 1808.97 1522.73 1814.45V1820.43C1523.52 1821.62 1523.58 1822.3 1523.58 1822.24Z" fill="#263238"/>
<path d="M1644.86 1763.66C1645.6 1760.46 1647.39 1757.59 1649.95 1755.53C1651.32 1754.57 1652.91 1753.95 1654.57 1753.75C1656.24 1753.54 1657.93 1753.74 1659.49 1754.34C1661.38 1755.07 1663 1756.35 1664.15 1758.01C1665.3 1759.67 1665.92 1761.64 1665.93 1763.66C1665.92 1765.51 1665.39 1767.32 1664.42 1768.89C1663.44 1770.46 1662.06 1771.74 1660.41 1772.58C1658.76 1773.42 1656.91 1773.79 1655.07 1773.65C1653.22 1773.51 1651.45 1772.87 1649.95 1771.8C1647.41 1769.71 1645.62 1766.86 1644.86 1763.66C1644.86 1763.66 1644.36 1764.68 1644.86 1766.54C1645.32 1769.25 1646.74 1771.7 1648.87 1773.43C1650.49 1774.75 1652.42 1775.64 1654.48 1776.01C1656.53 1776.37 1658.65 1776.21 1660.62 1775.52C1663.1 1774.68 1665.24 1773.08 1666.76 1770.95C1668.28 1768.82 1669.1 1766.28 1669.1 1763.66C1669.1 1761.05 1668.28 1758.5 1666.76 1756.37C1665.24 1754.25 1663.1 1752.65 1660.62 1751.8C1658.66 1751.11 1656.54 1750.93 1654.49 1751.29C1652.43 1751.65 1650.5 1752.52 1648.87 1753.83C1646.74 1755.57 1645.32 1758.02 1644.86 1760.72C1644.3 1762.64 1644.69 1763.66 1644.86 1763.66Z" fill="#263238"/>
<path d="M2301.22 2186.37L2784.6 2185.98V1420.83H2301.22V2186.37Z" fill="#263238"/>
<path d="M1069.97 1391.4H2807.93V1431.5H1069.97V1391.4Z" fill="#263238"/>
<path d="M2730.71 1431.5H2784.6V2243.26H2730.71V1431.5Z" fill="#263238"/>
<path d="M1096.24 1431.5H1150.13V2243.48H1096.24V1431.5Z" fill="#263238"/>
<path d="M1436.13 1431.5H1490.03V2243.48H1436.13V1431.5Z" fill="#263238"/>
<path d="M2563.55 1391.39C2563.55 1392.19 2615.36 1392.86 2679.24 1392.86C2743.13 1392.86 2794.94 1392.19 2794.94 1391.39C2794.94 1390.6 2743.13 1389.93 2679.24 1389.93C2615.36 1389.93 2563.55 1390.55 2563.55 1391.39Z" fill="#455A64"/>
<path d="M2055.37 2203.72L2054.02 2145.7L2162.76 2142.42L2165.64 2227.16L2158.92 2227.78C2128.98 2230.38 2006.4 2238.74 1986.23 2233.43C1963.63 2227.33 2055.37 2203.72 2055.37 2203.72Z" fill="#EF5B00"/>
<g opacity="0.4">
<path d="M2010.63 2216.88C2010.63 2216.88 1978.49 2227.16 1982.73 2232.41C1986.96 2237.67 2111.07 2233.77 2165.64 2227.33V2224.9L2020.86 2230.55C2020.86 2230.55 2017.13 2216.93 2010.63 2216.88Z" fill="white"/>
</g>
<path d="M2167.11 2224.79H2165.25L2159.6 2225.29L2139.88 2226.76C2123.22 2227.89 2100.34 2229.08 2074.69 2229.93C2049.05 2230.77 2026.11 2230.94 2009.39 2230.89H1989.62H1983.97H1982.11H1983.97H1989.62H2009.39C2026.06 2230.89 2048.93 2230.32 2074.64 2229.53C2100.34 2228.74 2123.16 2227.67 2139.83 2226.76L2159.6 2225.75H2165.25L2167.11 2224.79Z" fill="#263238"/>
<path d="M2020.75 2232.24C2019.78 2228.99 2018.43 2225.86 2016.73 2222.92C2014.69 2220.23 2012.36 2217.77 2009.79 2215.58C2013.08 2216.92 2015.89 2219.24 2017.85 2222.21C2019.81 2225.19 2020.82 2228.68 2020.75 2232.24V2232.24Z" fill="#263238"/>
<path d="M2052.32 2215.01C2052.04 2215.01 2050.4 2213.38 2048.76 2210.95C2047.13 2208.52 2046 2206.31 2046.28 2206.14C2046.56 2205.97 2048.2 2207.73 2049.84 2210.21C2051.48 2212.7 2052.61 2214.79 2052.32 2215.01Z" fill="#263238"/>
<path d="M2060.97 2210.1C2060.97 2210.1 2058.99 2209.25 2057.07 2207.61C2055.15 2205.98 2053.79 2204.45 2054.02 2204.17C2054.24 2203.88 2056 2205.01 2057.92 2206.65C2059.84 2208.29 2061.19 2209.82 2060.97 2210.1Z" fill="#263238"/>
<path d="M2066.22 2199.65C2064.42 2200.34 2062.5 2200.65 2060.57 2200.55C2058.68 2200.84 2056.74 2200.69 2054.92 2200.1C2056.72 2199.42 2058.65 2199.11 2060.57 2199.2C2063.68 2199.08 2066.22 2199.25 2066.22 2199.65Z" fill="#263238"/>
<path d="M2067.97 2192.36C2066.12 2193.63 2063.94 2194.34 2061.7 2194.39C2059.5 2194.82 2057.22 2194.59 2055.15 2193.72C2057.27 2193.28 2059.43 2193.07 2061.59 2193.1C2063.68 2192.61 2065.82 2192.37 2067.97 2192.36Z" fill="#263238"/>
<path d="M2048.31 2205.64C2046.01 2206.03 2043.66 2206.03 2041.36 2205.64C2038.82 2205.38 2036.31 2204.91 2033.85 2204.22C2032.37 2203.83 2030.93 2203.28 2029.56 2202.59C2028.71 2202.15 2028.06 2201.4 2027.75 2200.5C2027.62 2199.98 2027.64 2199.44 2027.81 2198.94C2027.98 2198.44 2028.29 2198 2028.71 2197.67C2031.34 2196.28 2034.36 2195.84 2037.28 2196.43C2040.19 2197.02 2042.81 2198.59 2044.7 2200.89C2045.81 2202.26 2046.64 2203.83 2047.13 2205.52C2047.25 2206.14 2047.25 2206.77 2047.13 2207.39C2046.32 2205.33 2045.17 2203.42 2043.74 2201.74C2042.12 2199.95 2040.02 2198.68 2037.69 2198.07C2034.91 2197.25 2031.91 2197.53 2029.33 2198.86C2028.26 2199.7 2028.77 2201 2030.01 2201.74C2031.28 2202.36 2032.6 2202.87 2033.96 2203.26C2036.35 2204 2038.79 2204.57 2041.25 2204.96C2045.38 2205.47 2048.31 2205.41 2048.31 2205.64Z" fill="#263238"/>
<path d="M2046.56 2206.03C2045.66 2204.6 2045.32 2202.89 2045.6 2201.23C2045.75 2199.38 2046.35 2197.59 2047.35 2196.03C2047.9 2194.98 2048.71 2194.09 2049.7 2193.44C2050.68 2192.79 2051.82 2192.4 2053 2192.3C2053.72 2192.43 2054.36 2192.83 2054.78 2193.42C2055.2 2194.01 2055.38 2194.75 2055.26 2195.47C2055.12 2196.59 2054.73 2197.67 2054.13 2198.63C2053.28 2200.2 2052.22 2201.65 2050.97 2202.92C2049.92 2204.21 2048.58 2205.23 2047.07 2205.92C2047.07 2205.92 2048.43 2204.62 2050.29 2202.3C2051.36 2200.99 2052.29 2199.57 2053.06 2198.07C2053.96 2196.54 2054.58 2193.89 2052.78 2193.6C2050.97 2193.32 2049.33 2195.3 2048.31 2196.71C2047.35 2198.1 2046.72 2199.68 2046.45 2201.34C2046.32 2202.91 2046.36 2204.48 2046.56 2206.03V2206.03Z" fill="#263238"/>
<path d="M2164 2195.07C2164 2195.35 2160.84 2195.07 2155.98 2195.64C2149.59 2196.51 2143.57 2199.19 2138.65 2203.36C2133.73 2207.54 2130.1 2213.03 2128.19 2219.19C2127.46 2221.78 2126.85 2224.4 2126.38 2227.05C2126.24 2226.32 2126.24 2225.57 2126.38 2224.84C2126.57 2222.94 2126.91 2221.05 2127.4 2219.19C2129.15 2212.74 2132.82 2206.96 2137.92 2202.63C2143.03 2198.31 2149.32 2195.63 2155.98 2194.96C2157.97 2194.76 2159.98 2194.76 2161.97 2194.96C2162.65 2194.91 2163.33 2194.95 2164 2195.07V2195.07Z" fill="#263238"/>
<path d="M2151.35 2150.16C2152.3 2157.57 2152.85 2165.01 2152.99 2172.48C2153.51 2180 2153.6 2187.54 2153.27 2195.07C2152.32 2187.67 2151.77 2180.22 2151.63 2172.76C2151.08 2165.24 2150.98 2157.69 2151.35 2150.16V2150.16Z" fill="#263238"/>
<path d="M2112.2 2217.44C2107.04 2218.83 2101.73 2219.53 2096.39 2219.53C2091.06 2219.94 2085.71 2219.68 2080.46 2218.74C2080.46 2218.35 2087.57 2218.74 2096.33 2218.23C2105.08 2217.72 2112.15 2217.1 2112.2 2217.44Z" fill="#263238"/>
<path d="M2133.5 2216.76C2133.5 2216.76 2132.99 2218.29 2132.31 2219.93C2131.63 2221.57 2131.3 2223.09 2130.9 2223.03C2130.51 2222.98 2130.28 2221.34 2130.9 2219.48C2131.52 2217.61 2133.27 2216.54 2133.5 2216.76Z" fill="#263238"/>
<path d="M2141.41 2206.54C2141.41 2206.54 2141.01 2207.95 2139.94 2209.14C2138.87 2210.32 2137.74 2211.06 2137.45 2210.78C2137.17 2210.49 2137.85 2209.42 2138.98 2208.23C2140.11 2207.05 2140.96 2206.31 2141.41 2206.54Z" fill="#263238"/>
<path d="M2152.71 2201.63C2152.71 2202.02 2151.18 2202.02 2149.6 2202.64C2148.02 2203.26 2146.89 2204.11 2146.6 2203.88C2146.32 2203.66 2147.17 2202.13 2149.15 2201.4C2151.12 2200.67 2152.71 2201.29 2152.71 2201.63Z" fill="#263238"/>
<path d="M2160.73 2199.2C2160.73 2199.54 2160.22 2200.1 2159.37 2200.5C2158.52 2200.89 2157.62 2200.89 2157.51 2200.5C2157.39 2200.1 2157.96 2199.54 2158.86 2199.2C2159.77 2198.86 2160.56 2198.86 2160.73 2199.2Z" fill="#263238"/>
<g opacity="0.3">
<path d="M2163.78 2192.19L2055.09 2193.72L2054.87 2180.61L2164.4 2185.24L2163.78 2192.19Z" fill="black"/>
</g>
<path d="M1883.87 2212.75V2154.68L1992.67 2154.29L1993.29 2239.02L1986.57 2239.47C1956.57 2241.22 1834.05 2246.37 1813.77 2240.38C1791.51 2233.88 1883.87 2212.75 1883.87 2212.75Z" fill="#EF5B00"/>
<g opacity="0.4">
<path d="M1838.79 2224.67C1838.79 2224.67 1806.42 2234.16 1810.55 2239.47C1814.67 2244.78 1938.78 2244.27 1993.52 2239.47V2237.04L1848.68 2238.91C1848.68 2238.91 1845.12 2224.96 1838.79 2224.67Z" fill="white"/>
</g>
<path d="M1994.99 2236.71H1993.12L1987.76 2237.04L1967.98 2238C1951.32 2238.68 1928.44 2239.3 1902.74 2239.42C1877.04 2239.53 1854.16 2239.42 1837.44 2238.68L1817.67 2237.95L1812.3 2237.61H1810.44H1817.67L1837.44 2237.89C1854.38 2237.89 1877.26 2238.4 1902.74 2238.29C1928.22 2238.17 1951.26 2237.67 1967.98 2237.27L1987.76 2236.71H1994.99Z" fill="#263238"/>
<path d="M1848.45 2240.38C1847.61 2237.09 1846.35 2233.92 1844.72 2230.94C1842.77 2228.17 1840.49 2225.63 1837.95 2223.37C1841.35 2224.61 1844.16 2227.07 1845.85 2230.27C1847.96 2233.19 1848.89 2236.8 1848.45 2240.38V2240.38Z" fill="#263238"/>
<path d="M1880.48 2223.94C1880.2 2223.94 1878.67 2222.24 1877.04 2219.76C1875.4 2217.27 1874.44 2215.13 1874.72 2214.9C1875 2214.67 1876.58 2216.6 1878.17 2219.08C1879.75 2221.57 1880.82 2223.71 1880.48 2223.94Z" fill="#263238"/>
<path d="M1889.29 2219.25C1889.29 2219.25 1887.32 2218.35 1885.45 2216.71C1883.59 2215.07 1882.23 2213.43 1882.46 2213.15C1882.69 2212.87 1884.44 2214.05 1886.3 2215.69C1888.16 2217.33 1889.52 2218.97 1889.29 2219.25Z" fill="#263238"/>
<path d="M1894.83 2208.97C1893.02 2209.61 1891.1 2209.86 1889.18 2209.7C1887.28 2209.93 1885.35 2209.74 1883.53 2209.14C1883.53 2208.74 1886.02 2208.4 1889.18 2208.4C1892.35 2208.4 1894.83 2208.46 1894.83 2208.97Z" fill="#263238"/>
<path d="M1896.69 2201.68C1894.82 2202.92 1892.62 2203.57 1890.37 2203.55C1888.15 2203.99 1885.85 2203.69 1883.81 2202.7C1885.95 2202.37 1888.1 2202.22 1890.25 2202.25C1892.38 2201.87 1894.54 2201.68 1896.69 2201.68Z" fill="#263238"/>
<path d="M1876.75 2214.45C1874.46 2214.88 1872.1 2214.88 1869.81 2214.45C1867.27 2214.17 1864.77 2213.62 1862.35 2212.81C1860.85 2212.42 1859.41 2211.85 1858.06 2211.12C1857.22 2210.62 1856.59 2209.84 1856.3 2208.91C1856.2 2208.4 1856.25 2207.86 1856.44 2207.37C1856.63 2206.88 1856.95 2206.46 1857.38 2206.14C1860.04 2204.82 1863.08 2204.47 1865.97 2205.14C1868.87 2205.8 1871.44 2207.46 1873.25 2209.82C1874.31 2211.2 1875.09 2212.77 1875.57 2214.45C1875.72 2215.08 1875.72 2215.74 1875.57 2216.37C1874.82 2214.32 1873.73 2212.41 1872.35 2210.72C1870.76 2208.88 1868.68 2207.53 1866.36 2206.82C1863.62 2205.92 1860.63 2206.15 1858.06 2207.44C1856.93 2208.29 1857.38 2209.59 1858.62 2210.32C1859.86 2211.01 1861.16 2211.56 1862.52 2211.96C1864.88 2212.75 1867.3 2213.38 1869.75 2213.83C1874.1 2214.11 1876.75 2214.11 1876.75 2214.45Z" fill="#263238"/>
<path d="M1874.95 2214.84C1874.13 2213.37 1873.85 2211.65 1874.16 2209.99C1874.35 2208.15 1874.99 2206.38 1876.02 2204.85C1876.6 2203.84 1877.42 2202.98 1878.4 2202.36C1879.39 2201.74 1880.51 2201.37 1881.67 2201.29C1882.02 2201.35 1882.36 2201.49 1882.66 2201.69C1882.96 2201.89 1883.22 2202.15 1883.42 2202.45C1883.62 2202.75 1883.76 2203.08 1883.82 2203.44C1883.89 2203.79 1883.89 2204.15 1883.81 2204.51C1883.65 2205.62 1883.25 2206.68 1882.63 2207.61C1881.72 2209.16 1880.62 2210.59 1879.35 2211.85C1877.21 2214 1875.45 2214.84 1875.4 2214.67C1875.34 2214.51 1876.75 2213.43 1878.67 2211.23C1879.78 2209.91 1880.77 2208.49 1881.61 2206.99C1882.57 2205.52 1883.19 2202.87 1881.61 2202.59C1880.03 2202.3 1878.11 2204.17 1877.04 2205.52C1876.04 2206.88 1875.37 2208.45 1875.06 2210.1C1874.89 2211.67 1874.85 2213.26 1874.95 2214.84Z" fill="#263238"/>
<path d="M1992.67 2206.99C1992.67 2206.99 1989.56 2206.71 1984.65 2207.33C1978.24 2208.07 1972.18 2210.6 1967.14 2214.62C1962.13 2218.69 1958.36 2224.06 1956.23 2230.15C1954.6 2234.78 1954.43 2237.95 1954.2 2237.89C1954.09 2237.16 1954.09 2236.42 1954.2 2235.69C1954.41 2233.78 1954.79 2231.89 1955.33 2230.04C1957.26 2223.63 1961.08 2217.96 1966.29 2213.77C1971.51 2209.57 1977.87 2207.05 1984.54 2206.54C1986.53 2206.36 1988.53 2206.36 1990.52 2206.54C1991.94 2206.71 1992.67 2206.88 1992.67 2206.99Z" fill="#263238"/>
<path d="M1981.2 2161.74C1981.99 2169.25 1982.33 2176.79 1982.22 2184.34C1982.6 2191.87 1982.51 2199.42 1981.94 2206.94C1981.18 2199.43 1980.84 2191.88 1980.92 2184.34C1980.54 2176.81 1980.63 2169.26 1981.2 2161.74Z" fill="#263238"/>
<path d="M1940.3 2228.01C1935.11 2229.24 1929.77 2229.79 1924.43 2229.64C1919.09 2229.91 1913.74 2229.49 1908.5 2228.4C1908.5 2228.06 1915.68 2228.4 1924.43 2228.4C1933.19 2228.4 1940.25 2227.61 1940.3 2228.01Z" fill="#263238"/>
<path d="M1961.66 2227.84C1961.66 2228.12 1961.04 2229.36 1960.36 2231C1959.68 2232.64 1959.23 2234.11 1958.83 2234.05C1958.44 2233.99 1958.27 2232.36 1959.12 2230.49C1959.96 2228.63 1961.38 2227.61 1961.66 2227.84Z" fill="#263238"/>
<path d="M1969.62 2217.84C1969.91 2217.84 1969.17 2219.19 1968.04 2220.38C1966.91 2221.57 1965.84 2222.24 1965.56 2221.96C1965.27 2221.68 1966.01 2220.61 1967.14 2219.42C1968.27 2218.23 1969.34 2217.56 1969.62 2217.84Z" fill="#263238"/>
<path d="M1981.09 2213.21C1981.09 2213.6 1979.56 2213.6 1977.98 2214.17C1976.4 2214.73 1975.22 2215.58 1974.93 2215.35C1974.65 2215.13 1975.55 2213.6 1977.53 2212.92C1979.51 2212.25 1981.2 2212.87 1981.09 2213.21Z" fill="#263238"/>
<path d="M1989.28 2211C1989.28 2211.34 1988.77 2211.91 1987.87 2212.3C1986.96 2212.7 1986.12 2212.64 1986 2212.3C1985.89 2211.96 1986.51 2211.4 1987.42 2211.06C1988.32 2210.72 1988.89 2210.66 1989.28 2211Z" fill="#263238"/>
<g opacity="0.3">
<path d="M1992.5 2204.05L1883.81 2202.76L1883.93 2189.65L1993.35 2197.16L1992.5 2204.05Z" fill="black"/>
</g>
<path d="M2124.07 1218.71L2080.51 1349.82C2068.76 1385.24 2037.81 1391.34 2000.47 1391.34H1758.18V1336.94L1979.51 1305.36L2032.27 1170.58L2124.07 1218.71Z" fill="#FFBE9D"/>
<path d="M1731.52 1325.7L1712.31 1316.6C1712.31 1316.6 1691.58 1276.55 1686.84 1278.19C1682.09 1279.83 1680.68 1291.58 1688.98 1309.94L1663.45 1302.65C1663.45 1302.65 1608.09 1328.24 1610.52 1331.69C1612.95 1335.13 1617.52 1343.32 1629.56 1337.33C1641.59 1331.35 1657.46 1323.89 1657.46 1323.89L1687.29 1332.42L1648.82 1337.33L1612.61 1370.21C1612.61 1370.21 1624.53 1379.14 1634.75 1369.7L1728.75 1389.87L1758.18 1391.56V1337.17L1731.52 1325.7Z" fill="#FFBE9D"/>
<path d="M1634.75 1369.53C1635.15 1369.53 1636.9 1366.99 1640.4 1363.32C1642.4 1361.21 1644.7 1359.42 1647.24 1358.01C1650.43 1356.48 1653.88 1355.58 1657.4 1355.35C1666.96 1354.7 1676.42 1353.1 1685.65 1350.55C1676.08 1350.23 1666.5 1350.87 1657.07 1352.47C1653.11 1352.72 1649.26 1353.81 1645.77 1355.69C1643.05 1357.33 1640.66 1359.46 1638.71 1361.96C1636.74 1364.09 1635.38 1366.7 1634.75 1369.53V1369.53Z" fill="#EB996E"/>
<path d="M1649.44 1373.26C1649.84 1373.26 1650.12 1371.34 1652.72 1370.78C1655.31 1370.21 1659.72 1369.76 1664.01 1369.31C1669.55 1369.22 1675.07 1368.67 1680.51 1367.67C1675.07 1365.77 1669.23 1365.32 1663.56 1366.37C1659.55 1366.72 1655.58 1367.53 1651.76 1368.8C1651.09 1369.05 1650.48 1369.45 1649.99 1369.97C1649.5 1370.48 1649.14 1371.11 1648.93 1371.79C1648.93 1372.81 1649.27 1373.32 1649.44 1373.26Z" fill="#EB996E"/>
<path d="M2328.61 679.4L2341.78 945.918L2227.67 956.651L2221.34 892.253C2221.34 892.253 2181.12 902.195 2168.92 864.969C2161.07 841.186 2154.12 654.884 2154.12 654.884L2328.61 679.4Z" fill="#FFBE9D"/>
<path d="M2144.29 685.727C2141.13 710.695 2175.98 725.27 2175.98 725.27L2182.08 784.301C2187.53 783.912 2193.01 783.912 2198.46 784.301C2195.52 756.621 2231.23 762.044 2234.84 780.912C2238.46 799.78 2217.89 811.19 2217.89 811.19C2232.13 833.052 2237.95 844.632 2258.17 865.138C2280.09 887.338 2292.07 889.146 2314.66 888.468L2339.57 887.338C2339.57 887.338 2348.5 866.042 2354.99 815.71C2358.1 791.532 2377.03 759.785 2371.6 720.468C2356.35 608.675 2249.25 620.482 2249.25 620.482C2193.26 621.668 2151.63 627.882 2144.29 685.727Z" fill="#263238"/>
<path d="M2226.14 623.363C2201.96 623.984 2176.88 625.905 2155.64 637.485C2134.4 649.065 2118.02 672.96 2122.37 696.743L2134.46 698.946L2139.43 690.02C2139.43 694.765 2139.43 699.511 2139.43 704.256L2160.67 710.187C2163.87 692.052 2170.25 674.628 2179.54 658.725" fill="#263238"/>
<path d="M2324.09 746.002C2324.94 744.716 2325.56 743.305 2325.96 741.821C2327.33 737.87 2328.35 733.806 2329.01 729.676C2331.31 715.964 2330.35 701.904 2326.22 688.629C2322.09 675.354 2314.9 663.234 2305.23 653.246C2302.38 650.202 2299.26 647.422 2295.91 644.942C2294.73 643.916 2293.4 643.095 2291.95 642.513C2291.67 642.908 2296.87 646.806 2303.7 654.601C2312.58 664.756 2319.26 676.644 2323.3 689.512C2327.19 702.426 2328.38 716 2326.81 729.394C2325.73 739.731 2323.59 745.832 2324.09 746.002Z" fill="#455A64"/>
<path d="M2301.61 736.681C2303.8 732.384 2305.31 727.772 2306.07 723.01C2308.58 711.63 2309.33 699.932 2308.28 688.326C2307.3 676.681 2304.55 665.253 2300.14 654.432C2298.55 649.86 2296.24 645.57 2293.31 641.722C2299.39 656.686 2303.43 672.399 2305.34 688.439C2306.25 704.614 2305 720.838 2301.61 736.681V736.681Z" fill="#455A64"/>
<path d="M2155.93 695.33C2156.49 695.33 2157.45 688.439 2162.08 678.383C2168.03 665.126 2177.57 653.795 2189.62 645.67C2201.67 637.545 2215.74 632.949 2230.27 632.401C2241.56 631.893 2248.29 633.587 2248.4 633.079C2246.91 632.327 2245.31 631.831 2243.65 631.61C2239.23 630.733 2234.72 630.316 2230.21 630.367C2215.13 630.346 2200.39 634.852 2187.9 643.302C2175.41 651.752 2165.75 663.757 2160.16 677.762C2158.46 681.932 2157.19 686.267 2156.38 690.698C2155.97 692.207 2155.82 693.772 2155.93 695.33Z" fill="#455A64"/>
<path d="M2320.54 601.784C2314.16 603.133 2308.4 606.548 2304.15 611.5C2299.2 615.747 2295.82 621.537 2294.55 627.938C2295.34 628.277 2299.01 620.708 2306.24 613.533C2313.47 606.359 2320.93 602.631 2320.54 601.784Z" fill="#263238"/>
<path d="M2293.93 601.897C2293.08 602.179 2294.83 608.167 2294.49 615.567C2294.16 622.967 2292.12 628.729 2292.91 629.125C2296.09 625.39 2297.71 620.576 2297.43 615.68C2298.11 610.805 2296.85 605.858 2293.93 601.897V601.897Z" fill="#455A64"/>
<path d="M2144.57 1190.12L2125.99 1253.22L2007.7 1199.73C2011.93 1186.51 2031.54 1127.65 2068.93 1034.21C2079.17 1008.6 2095.83 986.052 2117.31 968.747C2138.79 951.442 2164.36 939.961 2191.57 935.411C2228.86 928.605 2266.65 924.827 2304.55 924.113C2370.87 924.848 2468.37 966.311 2481.59 1031.44C2491.64 1081.04 2481.98 1168.66 2481.98 1275.08L2473.34 1478.45L2133.5 1489.74L2144.57 1190.12Z" fill="#EF5B00"/>
<g opacity="0.3">
<path d="M2481.81 1228.08C2440.46 1236.56 2398.04 1228.08 2355.9 1225.54C2330.37 1224.02 2302.01 1221.25 2281.78 1236.84C2265.74 1249.27 2259.19 1270.22 2254.67 1290C2237.04 1365.3 2233.88 1415.8 2229.93 1493.02L2434.48 1505.45L2481.81 1228.08Z" fill="black"/>
</g>
<path d="M2078.87 1014.72C2078.87 1015.57 2168.13 1016.19 2278.17 1016.19C2388.21 1016.19 2477.41 1015.57 2477.41 1014.72C2477.41 1013.88 2388.21 1013.25 2278.17 1013.25C2168.13 1013.25 2078.87 1013.93 2078.87 1014.72Z" fill="#FAFAFA"/>
<path d="M2054.07 1071.83C2054.07 1072.62 2151.12 1073.3 2270.71 1073.3C2390.3 1073.3 2487.35 1072.62 2487.35 1071.83C2487.35 1071.04 2390.41 1070.36 2270.71 1070.36C2151.01 1070.36 2054.07 1071.04 2054.07 1071.83Z" fill="#FAFAFA"/>
<path d="M2022.78 1143.46C2022.78 1144.31 2126.27 1144.93 2253.93 1144.93C2381.6 1144.93 2485.09 1144.31 2485.09 1143.46C2485.09 1142.61 2381.6 1141.99 2253.93 1141.99C2126.27 1141.99 2022.78 1142.67 2022.78 1143.46Z" fill="#FAFAFA"/>
<path d="M2147.06 1220.74C2147.06 1221.53 2179.43 1222.21 2219.25 1222.21C2259.08 1222.21 2291.5 1221.53 2291.5 1220.74C2291.5 1219.95 2259.19 1219.27 2219.25 1219.27C2179.31 1219.27 2147.06 1219.89 2147.06 1220.74Z" fill="#FAFAFA"/>
<path d="M2140.45 1304.63C2140.45 1305.42 2174.34 1305.81 2216.03 1305.47C2257.72 1305.14 2291.61 1304.23 2291.61 1303.38C2291.61 1302.54 2257.72 1302.2 2216.03 1302.54C2174.34 1302.88 2140.45 1303.67 2140.45 1304.63Z" fill="#FAFAFA"/>
<path d="M2137.17 1372.7C2139.13 1373.05 2141.12 1373.15 2143.1 1372.98L2159.31 1372.64C2172.99 1372.36 2191.85 1371.96 2212.7 1371.96C2233.54 1371.96 2252.24 1372.3 2266.08 1372.58L2282.29 1372.92C2284.28 1373.18 2286.29 1373.18 2288.28 1372.92C2286.35 1372.36 2284.36 1372.06 2282.35 1372.02C2278.56 1371.62 2273.03 1371.23 2266.19 1370.83C2252.52 1369.99 2233.6 1369.31 2212.7 1369.31C2191.8 1369.31 2172.87 1370.04 2159.26 1370.89C2152.42 1371.28 2146.89 1371.74 2143.05 1372.13C2141.07 1372.08 2139.1 1372.27 2137.17 1372.7Z" fill="#FAFAFA"/>
<path d="M2138.24 1427.83C2138.24 1428.62 2171.57 1429.3 2212.7 1429.3C2253.82 1429.3 2287.09 1428.62 2287.09 1427.83C2287.09 1427.04 2253.82 1426.36 2212.7 1426.36C2171.57 1426.36 2138.24 1426.98 2138.24 1427.83Z" fill="#FAFAFA"/>
<path d="M2128.13 958.741C2128.13 959.589 2193.55 960.21 2274.21 960.21C2354.88 960.21 2420.35 959.589 2420.35 958.741C2420.35 957.894 2354.94 957.272 2274.21 957.272C2193.49 957.272 2128.13 957.95 2128.13 958.741Z" fill="#FAFAFA"/>
<path d="M2135.76 969.361C2135.76 969.7 2139.15 969.87 2144.8 972.073C2152.64 975.511 2159.41 980.993 2164.4 987.946C2171.6 998.391 2175.66 1010.68 2176.09 1023.37C2176.52 1038.97 2175.31 1054.57 2172.48 1069.91C2167.72 1098.02 2161.39 1125.84 2153.5 1153.23C2150.73 1163.46 2148.41 1171.88 2146.66 1178.26C2145.71 1181.29 2144.97 1184.39 2144.46 1187.52C2145.81 1184.65 2146.91 1181.67 2147.73 1178.6C2149.65 1172.95 2152.37 1164.31 2155.53 1153.8C2163.93 1126.45 2170.54 1098.58 2175.3 1070.36C2178.13 1054.79 2179.27 1038.96 2178.69 1023.14C2178.1 1010 2173.66 997.333 2165.92 986.704C2160.63 979.572 2153.39 974.12 2145.08 971C2142.82 970.233 2140.5 969.703 2138.13 969.418C2137.35 969.286 2136.55 969.266 2135.76 969.361V969.361Z" fill="#263238"/>
<path d="M2011.48 1183.57C2016.75 1187.25 2022.32 1190.46 2028.15 1193.17C2038.65 1198.82 2053.4 1205.88 2069.89 1213.34C2086.39 1220.8 2101.53 1227.01 2112.6 1231.25C2118.48 1233.79 2124.57 1235.85 2130.79 1237.4C2125.19 1234.29 2119.38 1231.59 2113.39 1229.33C2102.54 1224.58 2087.52 1218.03 2071.08 1210.68C2054.64 1203.34 2039.84 1196.28 2029.11 1191.31C2023.41 1188.33 2017.53 1185.75 2011.48 1183.57Z" fill="#263238"/>
<path d="M2368.44 1481.78L1962.39 1496.13C1930.71 1497.26 1900.73 1510.77 1878.9 1533.75C1857.06 1556.73 1845.09 1587.35 1845.57 1619.05L1862.52 2198.97L2019.39 2193.77L2007.7 1650.8L2368.5 1641.31L2368.44 1481.78Z" fill="#263238"/>
<path d="M2536.21 1481.78L2130.11 1496.13C2098.43 1497.26 2068.45 1510.77 2046.61 1533.75C2024.77 1556.73 2012.81 1587.35 2013.29 1619.05L2030.24 2198.97L2189.2 2186.37L2175.3 1650.8L2536.1 1641.31L2536.21 1481.78Z" fill="#263238"/>
<path d="M2232.3 1692.43H2272.24V2170.95H2232.3V1692.43Z" fill="#455A64"/>
<path d="M2607.39 1227.97V1580.24C2607.39 1602.43 2598.58 1623.71 2582.89 1639.4C2567.2 1655.09 2545.92 1663.9 2523.73 1663.9H2289.13V1227.97C2289.13 1223.07 2290.09 1218.23 2291.97 1213.7C2293.84 1209.18 2296.59 1205.07 2300.05 1201.61C2303.51 1198.15 2307.62 1195.4 2312.14 1193.53C2316.67 1191.65 2321.51 1190.69 2326.41 1190.69H2570.11C2575 1190.69 2579.85 1191.65 2584.37 1193.53C2588.9 1195.4 2593.01 1198.15 2596.47 1201.61C2599.93 1205.07 2602.68 1209.18 2604.55 1213.7C2606.43 1218.23 2607.39 1223.07 2607.39 1227.97V1227.97Z" fill="#455A64"/>
<path d="M1973.46 1692.43H2544.69C2544.69 1675.95 2538.14 1660.14 2526.49 1648.49C2514.83 1636.84 2499.03 1630.29 2482.55 1630.29H2035.32C2018.84 1630.29 2003.03 1636.84 1991.38 1648.49C1979.73 1660.14 1973.18 1675.95 1973.18 1692.43H1973.46Z" fill="#455A64"/>
<path d="M2289.13 1622.21C2289.06 1623.11 2289.06 1624.02 2289.13 1624.92C2289.17 1627.51 2289.49 1630.09 2290.09 1632.61C2291.97 1640.58 2296.14 1647.84 2302.08 1653.48C2308.01 1659.13 2315.47 1662.93 2323.53 1664.41C2331.03 1665.21 2338.58 1665.5 2346.13 1665.26H2397.47C2433.91 1665.26 2466.9 1665.26 2490.74 1664.92L2518.98 1664.52L2526.67 1664.24C2527.58 1664.23 2528.48 1664.13 2529.38 1663.96C2528.5 1663.71 2527.58 1663.59 2526.67 1663.62L2518.98 1663.34L2490.74 1662.83C2466.9 1662.55 2433.91 1662.38 2397.47 1662.32H2346.18C2338.78 1662.62 2331.36 1662.45 2323.98 1661.81C2317.73 1660.74 2311.81 1658.23 2306.7 1654.47C2299.14 1648.9 2293.71 1640.93 2291.27 1631.87C2289.3 1625.94 2289.47 1622.21 2289.13 1622.21Z" fill="#263238"/>
<path d="M2217.22 1693.67C2228.85 1695.16 2240.58 1695.65 2252.3 1695.14C2263.99 1695.65 2275.71 1695.16 2287.32 1693.67C2275.71 1692.22 2263.99 1691.73 2252.3 1692.2C2240.58 1691.73 2228.85 1692.22 2217.22 1693.67V1693.67Z" fill="#263238"/>
<path d="M2043.45 1666.95C2045.13 1661.42 2046.3 1655.75 2046.96 1650C2048.88 1639.16 2051.42 1623.4 2054.47 1603.97C2057.52 1584.53 2059.61 1560.98 2070.34 1537.65C2075.97 1525.51 2083.08 1514.13 2091.53 1503.75C2100.76 1492.75 2111.48 1483.09 2123.39 1475.06C2135.25 1466.93 2148.28 1460.66 2162.03 1456.47C2174.83 1452.38 2188.14 1450.08 2201.57 1449.64C2227.38 1449.07 2251 1449.18 2270.66 1448.79C2290.31 1448.39 2306.3 1448.22 2317.32 1447.88C2322.99 1448.02 2328.66 1447.62 2334.26 1446.7C2328.66 1445.82 2322.99 1445.44 2317.32 1445.57C2306.3 1445.23 2290.37 1444.89 2270.66 1444.66C2250.94 1444.44 2227.61 1443.93 2201.4 1444.27C2172.43 1444.95 2144.27 1453.95 2120.28 1470.2C2107.89 1478.51 2096.78 1488.57 2087.29 1500.08C2078.56 1510.89 2071.25 1522.77 2065.54 1535.44C2064.24 1538.44 2063.17 1541.54 2061.98 1544.54L2060.29 1549.06C2059.89 1550.58 2059.44 1552.11 2059.05 1553.63C2058.2 1556.63 2057.35 1559.62 2056.56 1562.56C2055.77 1565.5 2055.49 1568.49 2054.92 1571.37C2052.94 1582.95 2051.87 1593.57 2050.52 1603.4C2048.03 1622.89 2046.05 1638.76 2044.87 1649.67C2043.88 1655.37 2043.4 1661.16 2043.45 1666.95V1666.95Z" fill="#455A64"/>
<path d="M2077.57 2214.11H2083.22C2082.81 2191.53 2086.9 2169.1 2095.26 2148.12C2103.61 2127.14 2116.07 2108.03 2131.89 2091.92C2147.71 2075.81 2166.59 2063.01 2187.41 2054.27C2208.23 2045.53 2230.59 2041.03 2253.17 2041.03C2275.75 2041.03 2298.11 2045.53 2318.93 2054.27C2339.76 2063.01 2358.63 2075.81 2374.45 2091.92C2390.28 2108.03 2402.73 2127.14 2411.09 2148.12C2419.44 2169.1 2423.53 2191.53 2423.12 2214.11H2428.77C2429.19 2190.78 2424.96 2167.61 2416.32 2145.94C2407.68 2124.27 2394.81 2104.53 2378.47 2087.89C2362.12 2071.25 2342.62 2058.03 2321.11 2049.01C2299.6 2039.98 2276.5 2035.33 2253.17 2035.33C2229.84 2035.33 2206.75 2039.98 2185.24 2049.01C2163.72 2058.03 2144.22 2071.25 2127.88 2087.89C2111.53 2104.53 2098.66 2124.27 2090.03 2145.94C2081.39 2167.61 2077.16 2190.78 2077.57 2214.11V2214.11Z" fill="#455A64"/>
<path d="M2399.62 2223.03C2399.62 2228.24 2401.17 2233.33 2404.06 2237.66C2406.95 2241.99 2411.06 2245.36 2415.87 2247.36C2420.68 2249.35 2425.97 2249.87 2431.08 2248.85C2436.19 2247.84 2440.88 2245.33 2444.56 2241.65C2448.24 2237.97 2450.75 2233.28 2451.76 2228.17C2452.78 2223.06 2452.26 2217.77 2450.27 2212.96C2448.27 2208.15 2444.9 2204.04 2440.57 2201.15C2436.24 2198.25 2431.15 2196.71 2425.95 2196.71C2422.49 2196.7 2419.06 2197.38 2415.86 2198.7C2412.67 2200.02 2409.76 2201.96 2407.31 2204.4C2404.87 2206.85 2402.93 2209.76 2401.61 2212.95C2400.29 2216.15 2399.61 2219.58 2399.62 2223.03V2223.03Z" fill="#263238"/>
<path d="M2052.78 2219.42C2052.78 2224.63 2054.32 2229.72 2057.21 2234.04C2060.1 2238.37 2064.22 2241.75 2069.03 2243.74C2073.84 2245.73 2079.13 2246.25 2084.24 2245.24C2089.34 2244.22 2094.03 2241.72 2097.71 2238.03C2101.39 2234.35 2103.9 2229.66 2104.92 2224.56C2105.93 2219.45 2105.41 2214.16 2103.42 2209.35C2101.43 2204.54 2098.05 2200.42 2093.72 2197.53C2089.4 2194.64 2084.31 2193.1 2079.1 2193.1C2072.12 2193.1 2065.42 2195.87 2060.49 2200.81C2055.55 2205.74 2052.78 2212.44 2052.78 2219.42Z" fill="#263238"/>
<path d="M2079.27 2170.95C2079.27 2171.8 2155.7 2172.48 2249.92 2172.48C2344.15 2172.48 2420.58 2171.8 2420.58 2170.95C2420.58 2170.1 2344.21 2169.48 2249.92 2169.48C2155.64 2169.48 2079.27 2170.16 2079.27 2170.95Z" fill="#455A64"/>
<path d="M2662.24 1071.72C2658.08 1074.35 2654.48 1077.79 2651.67 1081.84C2648.85 1085.89 2646.88 1090.46 2645.86 1095.28C2643.93 1104.99 2644.24 1115.02 2646.76 1124.59C2651.06 1143.12 2663.71 1160.86 2677.27 1174.53C2691.45 1158.88 2692.29 1134.37 2691.95 1121.88C2691.39 1102.17 2678.34 1066.86 2662.24 1071.72Z" fill="#EF5B00"/>
<path d="M2662.47 1207.75C2662.9 1202.27 2661.87 1196.77 2659.5 1191.82C2657.13 1186.86 2653.5 1182.61 2648.97 1179.5C2644.36 1176.46 2639.2 1174.37 2633.78 1173.34C2628.36 1172.32 2622.79 1172.37 2617.39 1173.51C2614.86 1173.78 2612.41 1174.6 2610.23 1175.9C2608.04 1177.21 2606.17 1178.98 2604.74 1181.08C2603.74 1183.25 2603.34 1185.65 2603.58 1188.02C2603.81 1190.39 2604.68 1192.66 2606.09 1194.59C2609.01 1198.43 2612.91 1201.42 2617.39 1203.23C2632.13 1210.23 2647.67 1214.53 2662.58 1207.86" fill="#EF5B00"/>
<path d="M2686.31 1249.1C2685.52 1244.95 2684.31 1240.9 2682.69 1237.01C2681.11 1232.68 2679.01 1228.56 2676.42 1224.75C2673.47 1219.99 2670.18 1215.44 2666.59 1211.14C2659.99 1203.21 2651.53 1197.04 2641.96 1193.17C2639.05 1192.1 2636.04 1191.33 2632.98 1190.86C2631.86 1190.67 2630.71 1190.67 2629.59 1190.86C2629.59 1191.25 2634.34 1191.76 2641.4 1194.75C2650.49 1198.91 2658.54 1205.05 2664.95 1212.72C2668.5 1216.94 2671.78 1221.37 2674.78 1225.99C2677.37 1229.67 2679.57 1233.61 2681.34 1237.74C2682.72 1241.64 2684.38 1245.44 2686.31 1249.1V1249.1Z" fill="#263238"/>
<path d="M2669.81 1099.46C2669.6 1101.58 2669.6 1103.72 2669.81 1105.84C2669.81 1109.91 2670.38 1115.84 2670.88 1123.13C2671.96 1137.76 2673.71 1157.92 2676.08 1180.18C2678.45 1202.44 2681.28 1222.43 2683.59 1236.67C2684.78 1243.9 2685.74 1249.72 2686.53 1253.62C2686.82 1255.72 2687.3 1257.8 2687.94 1259.83C2687.96 1257.69 2687.77 1255.55 2687.38 1253.45C2686.76 1249.04 2686.02 1243.22 2685.12 1236.5C2683.2 1221.98 2680.66 1201.93 2678.23 1179.67C2675.8 1157.42 2673.93 1137.7 2672.58 1122.79C2671.84 1115.78 2671.22 1109.96 2670.77 1105.5C2670.6 1103.47 2670.28 1101.45 2669.81 1099.46Z" fill="#263238"/>
<path d="M2687.21 1212.21C2689.39 1200.78 2694.25 1190.03 2701.4 1180.84C2708.55 1171.66 2717.78 1164.31 2728.33 1159.39C2733.98 1156.96 2740.71 1155.44 2745 1159.39C2749.29 1163.35 2748.16 1170.69 2745.9 1176.06C2740.98 1187.39 2732.81 1197 2722.42 1203.69C2712.03 1210.37 2699.9 1213.83 2687.55 1213.62" fill="#EF5B00"/>
<path d="M2724.21 1176.23C2723.14 1176.56 2722.13 1177.05 2721.22 1177.69C2709.8 1184.25 2699.85 1193.1 2692.01 1203.68C2688.92 1208.36 2686.61 1213.51 2685.18 1218.93C2684.06 1223.36 2683.55 1227.92 2683.65 1232.49C2683.73 1235.55 2684.09 1238.59 2684.72 1241.58C2684.87 1242.71 2685.18 1243.82 2685.63 1244.86C2686.08 1244.86 2685.06 1240.06 2685.18 1232.49C2685.29 1228.08 2685.91 1223.7 2687.04 1219.44C2688.55 1214.27 2690.84 1209.36 2693.82 1204.87C2699.52 1196.79 2706.49 1189.68 2714.44 1183.8C2717.85 1181.48 2721.11 1178.95 2724.21 1176.23V1176.23Z" fill="#263238"/>
<path d="M2689.07 1391.4C2707.81 1391.38 2725.77 1383.93 2739.01 1370.68C2752.25 1357.43 2759.69 1339.46 2759.69 1320.73V1250.11H2618.46V1320.73C2618.46 1339.46 2625.9 1357.43 2639.14 1370.68C2652.38 1383.93 2670.34 1391.38 2689.07 1391.4V1391.4Z" fill="#263238"/>
<path d="M2618.41 1284.86C2618.98 1285.58 2619.62 1286.24 2620.33 1286.83L2625.98 1292.09L2647.5 1310.28L2648.01 1310.67L2648.63 1310.33L2689.36 1285.87H2688.17L2726.53 1310.28L2727.09 1310.67L2727.66 1310.22L2751.1 1291.86L2757.54 1286.66C2758.34 1286.08 2759.06 1285.39 2759.69 1284.63C2758.77 1285.01 2757.91 1285.52 2757.14 1286.16C2755.34 1287.45 2753.08 1289.09 2750.37 1290.96L2726.47 1308.69H2727.6L2689.7 1283.73L2689.07 1283.33L2688.45 1283.67L2647.72 1308.64H2648.85L2626.99 1290.96L2620.83 1286.1C2619.25 1285.31 2618.46 1284.74 2618.41 1284.86Z" fill="#E0E0E0"/>
<path d="M2618.41 1270.73C2618.98 1271.46 2619.62 1272.12 2620.33 1272.71L2625.98 1277.96L2647.27 1296.32L2647.78 1296.72L2648.4 1296.38L2689.36 1271.75H2688.17L2726.3 1296.44L2726.87 1296.83L2727.43 1296.38L2750.87 1278.02L2757.31 1272.82C2758.11 1272.24 2758.83 1271.55 2759.46 1270.79C2758.54 1271.17 2757.68 1271.68 2756.92 1272.31L2750.14 1277.12L2726.24 1294.85H2727.37L2689.47 1269.89L2688.85 1269.49L2688.23 1269.83L2647.5 1294.8H2648.63L2626.77 1277.12L2620.61 1272.26C2619.25 1271.19 2618.46 1270.73 2618.41 1270.73Z" fill="#E0E0E0"/>
<path d="M2618.41 1298.98C2618.41 1298.98 2619.03 1299.77 2620.33 1301.01L2625.98 1306.21L2647.27 1324.57L2647.78 1325.02L2648.4 1324.62L2689.36 1300.28H2688.17L2726.3 1324.96L2726.87 1325.36L2727.43 1324.96C2736.86 1317.51 2744.83 1311.29 2750.87 1306.6L2757.31 1301.35C2758.78 1300.11 2759.52 1299.43 2759.46 1299.32C2758.55 1299.72 2757.7 1300.23 2756.92 1300.84C2755.11 1302.2 2752.85 1303.78 2750.14 1305.7L2726.24 1323.38H2727.37L2689.47 1298.41L2688.85 1298.02L2688.23 1298.41L2647.5 1323.33H2648.63L2626.77 1305.59L2620.61 1300.79C2619.96 1300.09 2619.22 1299.48 2618.41 1298.98V1298.98Z" fill="#E0E0E0"/>
<path d="M788.143 1557.25C817.404 1561.99 830.51 1597.92 827.685 1627.46C824.861 1657.01 812.942 1685.93 816.388 1715.36C820.511 1752.82 848.813 1784.45 852.089 1821.96C855.987 1866.19 824.692 1905.45 815.371 1948.83C810.795 1969.96 811.416 1992.33 803.564 2012.44C796.862 2029.57 784.426 2043.84 768.377 2052.83C752.328 2061.81 733.66 2064.96 715.554 2061.72C697.448 2058.48 681.026 2049.06 669.087 2035.07C657.148 2021.08 650.432 2003.38 650.082 1984.99C649.461 1951.09 670.419 1919.06 667.877 1885.17C666.012 1860.15 651.325 1836.42 654.432 1811.73C658.217 1782.08 685.671 1760.89 695.387 1732.65C705.103 1704.4 695.726 1673.22 699.115 1643.51C705.103 1590.24 734.647 1553.12 788.086 1557.36" fill="#EF5B00"/>
<path d="M937.614 1815.24C942.642 1864.61 920.667 1922.57 895.416 1965.33C869.717 2008.28 830.991 2041.92 784.866 2061.36C779.726 2063.51 773.286 2065.32 768.936 2061.81C767.388 2060.12 766.227 2058.11 765.534 2055.93C764.841 2053.74 764.634 2051.43 764.926 2049.16C764.55 1996.75 781.177 1945.64 812.313 1903.48C843.449 1861.33 887.415 1830.4 937.614 1815.35" fill="#EF5B00"/>
<g opacity="0.2">
<path d="M937.614 1815.24C942.642 1864.61 920.667 1922.57 895.416 1965.33C869.717 2008.28 830.991 2041.92 784.866 2061.36C779.726 2063.51 773.286 2065.32 768.936 2061.81C767.388 2060.12 766.227 2058.11 765.534 2055.93C764.841 2053.74 764.634 2051.43 764.926 2049.16C764.55 1996.75 781.177 1945.64 812.313 1903.48C843.449 1861.33 887.415 1830.4 937.614 1815.35" fill="black"/>
</g>
<path d="M722.559 2164.46C723.15 2163.62 723.625 2162.71 723.971 2161.74L727.53 2153.61C730.467 2146.6 734.93 2136.66 740.579 2123.95C755.288 2091.53 771.634 2059.87 789.555 2029.11C807.596 1998.38 827.166 1968.57 848.191 1939.8C856.269 1928.78 862.935 1919.91 867.624 1913.87C869.77 1911.04 871.578 1908.67 872.934 1906.81C873.6 1906.02 874.187 1905.17 874.685 1904.26C874.685 1904.26 873.838 1904.94 872.538 1906.47L866.889 1913.19C861.918 1918.84 855.026 1927.71 846.723 1938.61C803.482 1995.58 767.239 2057.55 738.771 2123.16C733.122 2135.76 729.168 2146.04 726.513 2153.21L723.462 2161.52C723.074 2162.47 722.772 2163.45 722.559 2164.46V2164.46Z" fill="#263238"/>
<path d="M754.362 1693.84C754.044 1695.4 753.855 1696.99 753.797 1698.59C753.797 1701.92 753.232 1706.44 752.837 1712.2C752.046 1724.23 750.973 1741.29 749.617 1762.19C746.962 1804.45 743.233 1862.8 738.658 1927.2C734.082 1991.6 729.676 2049.95 726.4 2092.15C724.818 2113.05 723.519 2130.05 722.558 2142.14C722.163 2147.79 721.88 2152.37 721.654 2155.7C721.518 2157.3 721.518 2158.9 721.654 2160.5C721.654 2160.5 721.937 2158.86 722.332 2155.76C722.728 2152.65 723.18 2147.9 723.801 2142.2C724.931 2130.17 726.513 2113.16 728.49 2092.32C732.275 2050.12 737.076 1991.88 741.595 1927.42C746.115 1862.97 749.447 1804.62 751.763 1762.19C752.724 1741.24 753.514 1724.23 754.079 1712.14C754.079 1706.49 754.418 1701.86 754.531 1698.47C754.617 1696.93 754.56 1695.38 754.362 1693.84V1693.84Z" fill="#263238"/>
<path d="M799.78 2094.07H676.124V2184.85C676.139 2200.58 682.401 2215.67 693.533 2226.79C704.666 2237.91 719.758 2244.16 735.494 2244.16V2244.16C750.683 2244.17 765.295 2238.35 776.32 2227.9C787.345 2217.46 793.942 2203.18 794.752 2188.01L799.78 2094.07Z" fill="#263238"/>
<path d="M1426.02 897.281L1131.15 1060.59L1142.22 1081.38L1434.5 915.018L1426.02 897.281Z" fill="#EF5B00"/>
<path d="M1440.54 881.859L1426.98 861.127L1419.08 865.985L1431.22 886.886L1440.54 881.859Z" fill="#EF5B00"/>
<path d="M1164.65 1034.78L1149.51 1043.48L1198.88 1358.57L1222.27 1358.86L1164.65 1034.78Z" fill="#EF5B00"/>
<path d="M1290.22 1391.39C1290.22 1391.39 1254.24 1355.02 1206.11 1357.5C1192.35 1358 1178.83 1361.22 1166.33 1366.97C1153.82 1372.72 1142.58 1380.89 1133.24 1391L1290.22 1391.39Z" fill="#EF5B00"/>
<path d="M1440.26 1024.72L1557.02 957.272L1523.13 898.919C1518.71 891.25 1512.81 884.528 1505.79 879.137C1498.77 873.746 1490.76 869.792 1482.2 867.499C1473.65 865.207 1464.73 864.621 1455.96 865.777C1447.18 866.932 1438.72 869.806 1431.05 874.233V874.233C1415.58 883.177 1404.28 897.899 1399.65 915.163C1395.03 932.428 1397.44 950.824 1406.36 966.311L1440.26 1024.72Z" fill="#EF5B00"/>
</svg>
