<svg xmlns="http://www.w3.org/2000/svg" xmlns:xlink="http://www.w3.org/1999/xlink" width="300" zoomAndPan="magnify" viewBox="0 0 224.87999 225" height="300" preserveAspectRatio="xMidYMid meet" version="1.0"><defs><clipPath id="928b262c4e"><path d="M 3.1875 3 L 215 3 L 215 221 L 3.1875 221 Z M 3.1875 3 " clip-rule="nonzero"/></clipPath><clipPath id="619fab2c89"><path d="M 106 53 L 221.324219 53 L 221.324219 141 L 106 141 Z M 106 53 " clip-rule="nonzero"/></clipPath></defs><g clip-path="url(#928b262c4e)"><path fill="#ef5b00" d="M 185.480469 160.648438 C 168.195312 155.242188 150.121094 153.0625 132.570312 148.53125 C 116.109375 144.128906 98.167969 138.722656 87.628906 124.339844 C 74.261719 104.722656 78.703125 75.605469 96.425781 60.132812 C 111.015625 46.535156 131.875 42.480469 151.253906 43.394531 C 160.050781 44.179688 168.890625 45.75 177.035156 49.191406 C 181.867188 51.152344 186.746094 53.769531 191.972656 54.292969 C 192.972656 54.378906 193.972656 54.421875 195.019531 54.335938 L 195.0625 54.335938 C 195.453125 54.292969 195.847656 54.25 196.238281 54.203125 C 197.066406 54.160156 197.894531 54.03125 198.722656 53.855469 L 214.878906 51.808594 C 213.832031 48.886719 212.65625 46.140625 211.304688 43.570312 C 210.695312 42.394531 210.042969 41.214844 209.390625 40.125 C 209.390625 40.082031 209.347656 40.082031 209.347656 40.039062 C 205.253906 33.195312 200.203125 27.660156 194.628906 23.214844 C 185.960938 15.671875 175.726562 10.050781 164.621094 6.910156 C 163.054688 6.519531 161.445312 6.171875 159.832031 5.867188 C 148.074219 2.988281 135.96875 4.121094 123.992188 3.90625 C 83.882812 3.816406 43.730469 4.210938 3.625 3.730469 C 3.449219 46.359375 3.539062 89.03125 3.582031 131.660156 C 3.667969 139.507812 3.1875 147.394531 4.363281 155.199219 C 7.71875 183.921875 29.273438 209.074219 56.578125 217.964844 C 61.847656 219.796875 68.378906 221.84375 73.34375 218.140625 C 76.699219 215.960938 78.613281 212.082031 78.398438 208.113281 C 78.484375 192.816406 78.265625 177.515625 78.398438 162.214844 C 81.664062 162.171875 84.972656 162.085938 88.238281 162.042969 C 91.242188 179.867188 97.382812 199.351562 113.582031 209.464844 C 126.867188 217.398438 142.761719 218.707031 157.871094 218.75 C 164.144531 218.75 170.457031 218.097656 176.597656 216.832031 C 178.601562 216.265625 180.605469 215.65625 182.609375 215 C 188.617188 212.953125 194.0625 209.421875 198.371094 204.757812 C 205.992188 196.214844 207.519531 182.746094 201.507812 172.9375 C 197.980469 166.921875 191.667969 163.480469 185.480469 160.648438 Z M 185.480469 160.648438 " fill-opacity="1" fill-rule="nonzero"/></g><g clip-path="url(#619fab2c89)"><path fill="#ef5b00" d="M 221.277344 107.164062 C 217.75 107.078125 214.179688 107.035156 210.652344 107.035156 C 208.738281 102.28125 206.820312 97.53125 204.554688 92.953125 C 201.464844 86.894531 197.761719 81.097656 193.320312 75.957031 C 190.445312 72.730469 187.355469 69.722656 184 67.019531 C 170.242188 56.296875 151.863281 51.589844 134.703125 54.988281 C 125.429688 56.644531 116.632812 61.527344 110.882812 69.070312 C 104.394531 77.613281 104.265625 90.820312 111.753906 98.796875 C 121.335938 108.953125 135.925781 111.390625 148.902344 114.445312 C 161.792969 117.191406 174.855469 119.109375 187.441406 122.941406 L 194.84375 125.035156 C 194.890625 125.035156 194.933594 125.035156 194.976562 125.035156 C 195.195312 125.121094 195.410156 125.167969 195.628906 125.253906 C 196.371094 125.472656 197.066406 125.734375 197.761719 125.996094 C 200.15625 126.910156 202.464844 128.128906 204.773438 129.308594 C 210.871094 132.097656 216.007812 136.410156 221.0625 140.726562 C 221.324219 129.523438 221.019531 118.324219 221.277344 107.164062 Z M 221.277344 107.164062 " fill-opacity="1" fill-rule="nonzero"/></g></svg>