<svg xmlns="http://www.w3.org/2000/svg" xmlns:xlink="http://www.w3.org/1999/xlink" width="1000" zoomAndPan="magnify" viewBox="0 0 750 225" height="300" preserveAspectRatio="xMidYMid meet" version="1.0"><defs><g/><clipPath id="059ea2bec7"><path d="M 9 10.003906 L 211 10.003906 L 211 217 L 9 217 Z M 9 10.003906 " clip-rule="nonzero"/></clipPath><clipPath id="a716344a3c"><path d="M 106 58 L 216.75 58 L 216.75 141 L 106 141 Z M 106 58 " clip-rule="nonzero"/></clipPath></defs><g clip-path="url(#059ea2bec7)"><path fill="#ef5b00" d="M 182.617188 159.65625 C 166.148438 154.527344 148.9375 152.460938 132.222656 148.15625 C 116.546875 143.976562 99.457031 138.847656 89.421875 125.195312 C 76.6875 106.578125 80.917969 78.941406 97.796875 64.253906 C 111.691406 51.34375 131.558594 47.496094 150.015625 48.367188 C 158.394531 49.109375 166.8125 50.601562 174.570312 53.867188 C 179.171875 55.730469 183.820312 58.210938 188.796875 58.707031 C 189.75 58.792969 190.703125 58.832031 191.699219 58.75 L 191.742188 58.75 C 192.113281 58.707031 192.488281 58.667969 192.859375 58.625 C 193.648438 58.585938 194.4375 58.460938 195.222656 58.296875 L 210.613281 56.351562 C 209.617188 53.578125 208.496094 50.972656 207.210938 48.53125 C 206.628906 47.414062 206.007812 46.296875 205.386719 45.261719 C 205.386719 45.222656 205.34375 45.222656 205.34375 45.179688 C 201.445312 38.683594 196.632812 33.429688 191.324219 29.210938 C 183.070312 22.054688 173.324219 16.714844 162.75 13.738281 C 161.257812 13.363281 159.722656 13.035156 158.1875 12.742188 C 146.988281 10.011719 135.457031 11.089844 124.050781 10.882812 C 85.855469 10.800781 47.613281 11.171875 9.414062 10.71875 C 9.25 51.179688 9.332031 91.683594 9.375 132.144531 C 9.457031 139.59375 9 147.082031 10.121094 154.484375 C 13.3125 181.75 33.84375 205.621094 59.847656 214.0625 C 64.867188 215.800781 71.089844 217.746094 75.816406 214.226562 C 79.011719 212.160156 80.835938 208.476562 80.628906 204.710938 C 80.710938 190.191406 80.503906 175.667969 80.628906 161.148438 C 83.738281 161.105469 86.890625 161.023438 90 160.980469 C 92.863281 177.902344 98.710938 196.398438 114.140625 205.996094 C 126.789062 213.523438 141.929688 214.765625 156.320312 214.808594 C 162.292969 214.808594 168.308594 214.1875 174.15625 212.988281 C 176.0625 212.449219 177.96875 211.871094 179.878906 211.25 C 185.601562 209.304688 190.785156 205.953125 194.890625 201.527344 C 202.152344 193.417969 203.601562 180.632812 197.878906 171.324219 C 194.519531 165.617188 188.503906 162.347656 182.617188 159.65625 Z M 182.617188 159.65625 " fill-opacity="1" fill-rule="nonzero"/></g><g clip-path="url(#a716344a3c)"><path fill="#ef5b00" d="M 216.707031 108.894531 C 213.347656 108.8125 209.949219 108.769531 206.589844 108.769531 C 204.761719 104.261719 202.9375 99.75 200.78125 95.40625 C 197.835938 89.65625 194.3125 84.152344 190.082031 79.269531 C 187.34375 76.210938 184.398438 73.355469 181.207031 70.789062 C 168.097656 60.613281 150.597656 56.144531 134.253906 59.371094 C 125.421875 60.941406 117.042969 65.578125 111.570312 72.734375 C 105.390625 80.84375 105.265625 93.378906 112.398438 100.949219 C 121.523438 110.589844 135.417969 112.90625 147.777344 115.804688 C 160.054688 118.410156 172.496094 120.230469 184.480469 123.871094 L 191.53125 125.855469 C 191.574219 125.855469 191.617188 125.855469 191.65625 125.855469 C 191.863281 125.9375 192.070312 125.980469 192.28125 126.0625 C 192.984375 126.269531 193.648438 126.519531 194.3125 126.765625 C 196.59375 127.636719 198.792969 128.792969 200.988281 129.910156 C 206.796875 132.558594 211.691406 136.65625 216.5 140.75 C 216.75 130.117188 216.460938 119.484375 216.707031 108.894531 Z M 216.707031 108.894531 " fill-opacity="1" fill-rule="nonzero"/></g><g fill="#ef5b00" fill-opacity="1"><g transform="translate(242.324462, 101.750007)"><g><path d="M 15.828125 0.515625 C 13.347656 0.515625 11.144531 0.210938 9.21875 -0.390625 C 7.289062 -1.003906 5.679688 -1.804688 4.390625 -2.796875 C 3.109375 -3.796875 2.125 -4.890625 1.4375 -6.078125 L 5.328125 -10.8125 L 5.9375 -10.8125 C 7.007812 -9.21875 8.367188 -7.945312 10.015625 -7 C 11.671875 -6.0625 13.609375 -5.59375 15.828125 -5.59375 C 17.710938 -5.59375 19.132812 -5.988281 20.09375 -6.78125 C 21.050781 -7.582031 21.53125 -8.679688 21.53125 -10.078125 C 21.53125 -10.929688 21.375 -11.640625 21.0625 -12.203125 C 20.757812 -12.773438 20.25 -13.265625 19.53125 -13.671875 C 18.8125 -14.078125 17.84375 -14.425781 16.625 -14.71875 L 12.03125 -15.765625 C 8.832031 -16.503906 6.445312 -17.722656 4.875 -19.421875 C 3.300781 -21.117188 2.515625 -23.328125 2.515625 -26.046875 C 2.515625 -28.066406 3.019531 -29.84375 4.03125 -31.375 C 5.039062 -32.90625 6.507812 -34.09375 8.4375 -34.9375 C 10.363281 -35.78125 12.671875 -36.203125 15.359375 -36.203125 C 18.109375 -36.203125 20.460938 -35.835938 22.421875 -35.109375 C 24.378906 -34.390625 26.035156 -33.28125 27.390625 -31.78125 L 23.90625 -27 L 23.296875 -27 C 22.285156 -28.0625 21.128906 -28.851562 19.828125 -29.375 C 18.523438 -29.90625 17.035156 -30.171875 15.359375 -30.171875 C 13.421875 -30.171875 11.945312 -29.828125 10.9375 -29.140625 C 9.925781 -28.460938 9.421875 -27.519531 9.421875 -26.3125 C 9.421875 -25.195312 9.773438 -24.300781 10.484375 -23.625 C 11.191406 -22.957031 12.414062 -22.441406 14.15625 -22.078125 L 18.84375 -21.09375 C 22.3125 -20.363281 24.828125 -19.125 26.390625 -17.375 C 27.953125 -15.625 28.734375 -13.335938 28.734375 -10.515625 C 28.734375 -8.285156 28.253906 -6.34375 27.296875 -4.6875 C 26.335938 -3.039062 24.890625 -1.757812 22.953125 -0.84375 C 21.015625 0.0625 18.640625 0.515625 15.828125 0.515625 Z M 15.828125 0.515625 "/></g></g></g><g fill="#ef5b00" fill-opacity="1"><g transform="translate(272.983732, 101.750007)"><g><path d="M 4.640625 0 L 4.640625 -35.6875 L 11.6875 -35.6875 L 11.6875 -21.125 L 12.46875 -21.125 L 24.390625 -35.6875 L 31.609375 -35.6875 L 31.609375 -35.078125 L 18.484375 -18.84375 L 32.984375 -0.609375 L 32.984375 0 L 25 0 L 12.46875 -15.40625 L 11.6875 -15.40625 L 11.6875 0 Z M 4.640625 0 "/></g></g></g><g fill="#ef5b00" fill-opacity="1"><g transform="translate(305.961975, 101.750007)"><g><path d="M 11.6875 0 L 4.640625 0 L 4.640625 -35.6875 L 11.6875 -35.6875 Z M 11.6875 0 "/></g></g></g><g fill="#ef5b00" fill-opacity="1"><g transform="translate(322.31684, 101.750007)"><g><path d="M 11.6875 -35.6875 L 11.6875 -5.90625 L 27.734375 -5.90625 L 27.734375 0 L 4.640625 0 L 4.640625 -35.6875 Z M 11.6875 -35.6875 "/></g></g></g><g fill="#ef5b00" fill-opacity="1"><g transform="translate(351.218573, 101.750007)"><g><path d="M 11.6875 -35.6875 L 11.6875 -5.90625 L 27.734375 -5.90625 L 27.734375 0 L 4.640625 0 L 4.640625 -35.6875 Z M 11.6875 -35.6875 "/></g></g></g><g fill="#ef5b00" fill-opacity="1"><g transform="translate(380.120305, 101.750007)"><g/></g></g><g fill="#ef5b00" fill-opacity="1"><g transform="translate(391.910455, 101.750007)"><g><path d="M 34.25 0 L 26.828125 0 L 24.140625 -8.234375 L 10.46875 -8.234375 L 7.78125 0 L 0.53125 0 L 12.859375 -35.6875 L 21.921875 -35.6875 Z M 16.96875 -28.25 L 12.375 -14.15625 L 22.1875 -14.15625 L 17.578125 -28.25 Z M 16.96875 -28.25 "/></g></g></g><g fill="#ef5b00" fill-opacity="1"><g transform="translate(426.695056, 101.750007)"><g><path d="M 15.828125 0.515625 C 13.347656 0.515625 11.144531 0.210938 9.21875 -0.390625 C 7.289062 -1.003906 5.679688 -1.804688 4.390625 -2.796875 C 3.109375 -3.796875 2.125 -4.890625 1.4375 -6.078125 L 5.328125 -10.8125 L 5.9375 -10.8125 C 7.007812 -9.21875 8.367188 -7.945312 10.015625 -7 C 11.671875 -6.0625 13.609375 -5.59375 15.828125 -5.59375 C 17.710938 -5.59375 19.132812 -5.988281 20.09375 -6.78125 C 21.050781 -7.582031 21.53125 -8.679688 21.53125 -10.078125 C 21.53125 -10.929688 21.375 -11.640625 21.0625 -12.203125 C 20.757812 -12.773438 20.25 -13.265625 19.53125 -13.671875 C 18.8125 -14.078125 17.84375 -14.425781 16.625 -14.71875 L 12.03125 -15.765625 C 8.832031 -16.503906 6.445312 -17.722656 4.875 -19.421875 C 3.300781 -21.117188 2.515625 -23.328125 2.515625 -26.046875 C 2.515625 -28.066406 3.019531 -29.84375 4.03125 -31.375 C 5.039062 -32.90625 6.507812 -34.09375 8.4375 -34.9375 C 10.363281 -35.78125 12.671875 -36.203125 15.359375 -36.203125 C 18.109375 -36.203125 20.460938 -35.835938 22.421875 -35.109375 C 24.378906 -34.390625 26.035156 -33.28125 27.390625 -31.78125 L 23.90625 -27 L 23.296875 -27 C 22.285156 -28.0625 21.128906 -28.851562 19.828125 -29.375 C 18.523438 -29.90625 17.035156 -30.171875 15.359375 -30.171875 C 13.421875 -30.171875 11.945312 -29.828125 10.9375 -29.140625 C 9.925781 -28.460938 9.421875 -27.519531 9.421875 -26.3125 C 9.421875 -25.195312 9.773438 -24.300781 10.484375 -23.625 C 11.191406 -22.957031 12.414062 -22.441406 14.15625 -22.078125 L 18.84375 -21.09375 C 22.3125 -20.363281 24.828125 -19.125 26.390625 -17.375 C 27.953125 -15.625 28.734375 -13.335938 28.734375 -10.515625 C 28.734375 -8.285156 28.253906 -6.34375 27.296875 -4.6875 C 26.335938 -3.039062 24.890625 -1.757812 22.953125 -0.84375 C 21.015625 0.0625 18.640625 0.515625 15.828125 0.515625 Z M 15.828125 0.515625 "/></g></g></g><g fill="#ef5b00" fill-opacity="1"><g transform="translate(457.354315, 101.750007)"><g><path d="M 15.828125 0.515625 C 13.347656 0.515625 11.144531 0.210938 9.21875 -0.390625 C 7.289062 -1.003906 5.679688 -1.804688 4.390625 -2.796875 C 3.109375 -3.796875 2.125 -4.890625 1.4375 -6.078125 L 5.328125 -10.8125 L 5.9375 -10.8125 C 7.007812 -9.21875 8.367188 -7.945312 10.015625 -7 C 11.671875 -6.0625 13.609375 -5.59375 15.828125 -5.59375 C 17.710938 -5.59375 19.132812 -5.988281 20.09375 -6.78125 C 21.050781 -7.582031 21.53125 -8.679688 21.53125 -10.078125 C 21.53125 -10.929688 21.375 -11.640625 21.0625 -12.203125 C 20.757812 -12.773438 20.25 -13.265625 19.53125 -13.671875 C 18.8125 -14.078125 17.84375 -14.425781 16.625 -14.71875 L 12.03125 -15.765625 C 8.832031 -16.503906 6.445312 -17.722656 4.875 -19.421875 C 3.300781 -21.117188 2.515625 -23.328125 2.515625 -26.046875 C 2.515625 -28.066406 3.019531 -29.84375 4.03125 -31.375 C 5.039062 -32.90625 6.507812 -34.09375 8.4375 -34.9375 C 10.363281 -35.78125 12.671875 -36.203125 15.359375 -36.203125 C 18.109375 -36.203125 20.460938 -35.835938 22.421875 -35.109375 C 24.378906 -34.390625 26.035156 -33.28125 27.390625 -31.78125 L 23.90625 -27 L 23.296875 -27 C 22.285156 -28.0625 21.128906 -28.851562 19.828125 -29.375 C 18.523438 -29.90625 17.035156 -30.171875 15.359375 -30.171875 C 13.421875 -30.171875 11.945312 -29.828125 10.9375 -29.140625 C 9.925781 -28.460938 9.421875 -27.519531 9.421875 -26.3125 C 9.421875 -25.195312 9.773438 -24.300781 10.484375 -23.625 C 11.191406 -22.957031 12.414062 -22.441406 14.15625 -22.078125 L 18.84375 -21.09375 C 22.3125 -20.363281 24.828125 -19.125 26.390625 -17.375 C 27.953125 -15.625 28.734375 -13.335938 28.734375 -10.515625 C 28.734375 -8.285156 28.253906 -6.34375 27.296875 -4.6875 C 26.335938 -3.039062 24.890625 -1.757812 22.953125 -0.84375 C 21.015625 0.0625 18.640625 0.515625 15.828125 0.515625 Z M 15.828125 0.515625 "/></g></g></g><g fill="#ef5b00" fill-opacity="1"><g transform="translate(488.013585, 101.750007)"><g><path d="M 11.6875 -15.671875 L 11.6875 -5.90625 L 28.734375 -5.90625 L 28.734375 0 L 4.640625 0 L 4.640625 -35.6875 L 28.34375 -35.6875 L 28.34375 -29.78125 L 11.6875 -29.78125 L 11.6875 -21.4375 L 26.25 -21.4375 L 26.25 -15.671875 Z M 11.6875 -15.671875 "/></g></g></g><g fill="#ef5b00" fill-opacity="1"><g transform="translate(518.697253, 101.750007)"><g><path d="M 15.828125 0.515625 C 13.347656 0.515625 11.144531 0.210938 9.21875 -0.390625 C 7.289062 -1.003906 5.679688 -1.804688 4.390625 -2.796875 C 3.109375 -3.796875 2.125 -4.890625 1.4375 -6.078125 L 5.328125 -10.8125 L 5.9375 -10.8125 C 7.007812 -9.21875 8.367188 -7.945312 10.015625 -7 C 11.671875 -6.0625 13.609375 -5.59375 15.828125 -5.59375 C 17.710938 -5.59375 19.132812 -5.988281 20.09375 -6.78125 C 21.050781 -7.582031 21.53125 -8.679688 21.53125 -10.078125 C 21.53125 -10.929688 21.375 -11.640625 21.0625 -12.203125 C 20.757812 -12.773438 20.25 -13.265625 19.53125 -13.671875 C 18.8125 -14.078125 17.84375 -14.425781 16.625 -14.71875 L 12.03125 -15.765625 C 8.832031 -16.503906 6.445312 -17.722656 4.875 -19.421875 C 3.300781 -21.117188 2.515625 -23.328125 2.515625 -26.046875 C 2.515625 -28.066406 3.019531 -29.84375 4.03125 -31.375 C 5.039062 -32.90625 6.507812 -34.09375 8.4375 -34.9375 C 10.363281 -35.78125 12.671875 -36.203125 15.359375 -36.203125 C 18.109375 -36.203125 20.460938 -35.835938 22.421875 -35.109375 C 24.378906 -34.390625 26.035156 -33.28125 27.390625 -31.78125 L 23.90625 -27 L 23.296875 -27 C 22.285156 -28.0625 21.128906 -28.851562 19.828125 -29.375 C 18.523438 -29.90625 17.035156 -30.171875 15.359375 -30.171875 C 13.421875 -30.171875 11.945312 -29.828125 10.9375 -29.140625 C 9.925781 -28.460938 9.421875 -27.519531 9.421875 -26.3125 C 9.421875 -25.195312 9.773438 -24.300781 10.484375 -23.625 C 11.191406 -22.957031 12.414062 -22.441406 14.15625 -22.078125 L 18.84375 -21.09375 C 22.3125 -20.363281 24.828125 -19.125 26.390625 -17.375 C 27.953125 -15.625 28.734375 -13.335938 28.734375 -10.515625 C 28.734375 -8.285156 28.253906 -6.34375 27.296875 -4.6875 C 26.335938 -3.039062 24.890625 -1.757812 22.953125 -0.84375 C 21.015625 0.0625 18.640625 0.515625 15.828125 0.515625 Z M 15.828125 0.515625 "/></g></g></g><g fill="#ef5b00" fill-opacity="1"><g transform="translate(549.356523, 101.750007)"><g><path d="M 15.828125 0.515625 C 13.347656 0.515625 11.144531 0.210938 9.21875 -0.390625 C 7.289062 -1.003906 5.679688 -1.804688 4.390625 -2.796875 C 3.109375 -3.796875 2.125 -4.890625 1.4375 -6.078125 L 5.328125 -10.8125 L 5.9375 -10.8125 C 7.007812 -9.21875 8.367188 -7.945312 10.015625 -7 C 11.671875 -6.0625 13.609375 -5.59375 15.828125 -5.59375 C 17.710938 -5.59375 19.132812 -5.988281 20.09375 -6.78125 C 21.050781 -7.582031 21.53125 -8.679688 21.53125 -10.078125 C 21.53125 -10.929688 21.375 -11.640625 21.0625 -12.203125 C 20.757812 -12.773438 20.25 -13.265625 19.53125 -13.671875 C 18.8125 -14.078125 17.84375 -14.425781 16.625 -14.71875 L 12.03125 -15.765625 C 8.832031 -16.503906 6.445312 -17.722656 4.875 -19.421875 C 3.300781 -21.117188 2.515625 -23.328125 2.515625 -26.046875 C 2.515625 -28.066406 3.019531 -29.84375 4.03125 -31.375 C 5.039062 -32.90625 6.507812 -34.09375 8.4375 -34.9375 C 10.363281 -35.78125 12.671875 -36.203125 15.359375 -36.203125 C 18.109375 -36.203125 20.460938 -35.835938 22.421875 -35.109375 C 24.378906 -34.390625 26.035156 -33.28125 27.390625 -31.78125 L 23.90625 -27 L 23.296875 -27 C 22.285156 -28.0625 21.128906 -28.851562 19.828125 -29.375 C 18.523438 -29.90625 17.035156 -30.171875 15.359375 -30.171875 C 13.421875 -30.171875 11.945312 -29.828125 10.9375 -29.140625 C 9.925781 -28.460938 9.421875 -27.519531 9.421875 -26.3125 C 9.421875 -25.195312 9.773438 -24.300781 10.484375 -23.625 C 11.191406 -22.957031 12.414062 -22.441406 14.15625 -22.078125 L 18.84375 -21.09375 C 22.3125 -20.363281 24.828125 -19.125 26.390625 -17.375 C 27.953125 -15.625 28.734375 -13.335938 28.734375 -10.515625 C 28.734375 -8.285156 28.253906 -6.34375 27.296875 -4.6875 C 26.335938 -3.039062 24.890625 -1.757812 22.953125 -0.84375 C 21.015625 0.0625 18.640625 0.515625 15.828125 0.515625 Z M 15.828125 0.515625 "/></g></g></g><g fill="#ef5b00" fill-opacity="1"><g transform="translate(580.015793, 101.750007)"><g><path d="M 11.109375 0 L 4.640625 0 L 4.640625 -35.6875 L 13.875 -35.6875 L 22.90625 -9.453125 L 23.40625 -9.453125 L 32.390625 -35.6875 L 41.40625 -35.6875 L 41.40625 0 L 34.71875 0 L 34.71875 -23.578125 L 34.109375 -23.6875 L 25.859375 0 L 19.96875 0 L 11.71875 -23.6875 L 11.109375 -23.578125 Z M 11.109375 0 "/></g></g></g><g fill="#ef5b00" fill-opacity="1"><g transform="translate(626.07794, 101.750007)"><g><path d="M 11.6875 -15.671875 L 11.6875 -5.90625 L 28.734375 -5.90625 L 28.734375 0 L 4.640625 0 L 4.640625 -35.6875 L 28.34375 -35.6875 L 28.34375 -29.78125 L 11.6875 -29.78125 L 11.6875 -21.4375 L 26.25 -21.4375 L 26.25 -15.671875 Z M 11.6875 -15.671875 "/></g></g></g><g fill="#ef5b00" fill-opacity="1"><g transform="translate(656.761609, 101.750007)"><g><path d="M 11.46875 0 L 4.640625 0 L 4.640625 -35.6875 L 12.71875 -35.6875 L 27.046875 -12.703125 L 27.6875 -12.796875 L 27.6875 -35.6875 L 34.46875 -35.6875 L 34.46875 0 L 27.25 0 L 12.078125 -24.5625 L 11.46875 -24.46875 Z M 11.46875 0 "/></g></g></g><g fill="#ef5b00" fill-opacity="1"><g transform="translate(695.891246, 101.750007)"><g><path d="M 28.609375 -35.6875 L 28.609375 -29.765625 L 18.3125 -29.765625 L 18.3125 0 L 11.28125 0 L 11.28125 -29.765625 L 0.984375 -29.765625 L 0.984375 -35.6875 Z M 28.609375 -35.6875 "/></g></g></g><g fill="#ef5b00" fill-opacity="1"><g transform="translate(316.913658, 161.500002)"><g><path d="M 34.25 0 L 26.828125 0 L 24.140625 -8.234375 L 10.46875 -8.234375 L 7.78125 0 L 0.53125 0 L 12.859375 -35.6875 L 21.921875 -35.6875 Z M 16.96875 -28.25 L 12.375 -14.15625 L 22.1875 -14.15625 L 17.578125 -28.25 Z M 16.96875 -28.25 "/></g></g></g><g fill="#ef5b00" fill-opacity="1"><g transform="translate(351.69826, 161.500002)"><g><path d="M 18.921875 0.515625 C 14.003906 0.515625 10.359375 -0.648438 7.984375 -2.984375 C 5.609375 -5.328125 4.421875 -8.789062 4.421875 -13.375 L 4.421875 -35.6875 L 11.328125 -35.6875 L 11.328125 -13.421875 C 11.328125 -10.816406 11.953125 -8.863281 13.203125 -7.5625 C 14.460938 -6.257812 16.367188 -5.609375 18.921875 -5.609375 C 23.984375 -5.609375 26.515625 -8.210938 26.515625 -13.421875 L 26.515625 -35.6875 L 33.421875 -35.6875 L 33.421875 -13.375 C 33.421875 -8.789062 32.234375 -5.328125 29.859375 -2.984375 C 27.484375 -0.648438 23.835938 0.515625 18.921875 0.515625 Z M 18.921875 0.515625 "/></g></g></g><g fill="#ef5b00" fill-opacity="1"><g transform="translate(389.534142, 161.500002)"><g><path d="M 15.828125 0.515625 C 13.347656 0.515625 11.144531 0.210938 9.21875 -0.390625 C 7.289062 -1.003906 5.679688 -1.804688 4.390625 -2.796875 C 3.109375 -3.796875 2.125 -4.890625 1.4375 -6.078125 L 5.328125 -10.8125 L 5.9375 -10.8125 C 7.007812 -9.21875 8.367188 -7.945312 10.015625 -7 C 11.671875 -6.0625 13.609375 -5.59375 15.828125 -5.59375 C 17.710938 -5.59375 19.132812 -5.988281 20.09375 -6.78125 C 21.050781 -7.582031 21.53125 -8.679688 21.53125 -10.078125 C 21.53125 -10.929688 21.375 -11.640625 21.0625 -12.203125 C 20.757812 -12.773438 20.25 -13.265625 19.53125 -13.671875 C 18.8125 -14.078125 17.84375 -14.425781 16.625 -14.71875 L 12.03125 -15.765625 C 8.832031 -16.503906 6.445312 -17.722656 4.875 -19.421875 C 3.300781 -21.117188 2.515625 -23.328125 2.515625 -26.046875 C 2.515625 -28.066406 3.019531 -29.84375 4.03125 -31.375 C 5.039062 -32.90625 6.507812 -34.09375 8.4375 -34.9375 C 10.363281 -35.78125 12.671875 -36.203125 15.359375 -36.203125 C 18.109375 -36.203125 20.460938 -35.835938 22.421875 -35.109375 C 24.378906 -34.390625 26.035156 -33.28125 27.390625 -31.78125 L 23.90625 -27 L 23.296875 -27 C 22.285156 -28.0625 21.128906 -28.851562 19.828125 -29.375 C 18.523438 -29.90625 17.035156 -30.171875 15.359375 -30.171875 C 13.421875 -30.171875 11.945312 -29.828125 10.9375 -29.140625 C 9.925781 -28.460938 9.421875 -27.519531 9.421875 -26.3125 C 9.421875 -25.195312 9.773438 -24.300781 10.484375 -23.625 C 11.191406 -22.957031 12.414062 -22.441406 14.15625 -22.078125 L 18.84375 -21.09375 C 22.3125 -20.363281 24.828125 -19.125 26.390625 -17.375 C 27.953125 -15.625 28.734375 -13.335938 28.734375 -10.515625 C 28.734375 -8.285156 28.253906 -6.34375 27.296875 -4.6875 C 26.335938 -3.039062 24.890625 -1.757812 22.953125 -0.84375 C 21.015625 0.0625 18.640625 0.515625 15.828125 0.515625 Z M 15.828125 0.515625 "/></g></g></g><g fill="#ef5b00" fill-opacity="1"><g transform="translate(420.193412, 161.500002)"><g><path d="M 28.609375 -35.6875 L 28.609375 -29.765625 L 18.3125 -29.765625 L 18.3125 0 L 11.28125 0 L 11.28125 -29.765625 L 0.984375 -29.765625 L 0.984375 -35.6875 Z M 28.609375 -35.6875 "/></g></g></g><g fill="#ef5b00" fill-opacity="1"><g transform="translate(449.77863, 161.500002)"><g><path d="M 4.640625 0 L 4.640625 -35.6875 L 18.96875 -35.6875 C 22.664062 -35.6875 25.453125 -34.835938 27.328125 -33.140625 C 29.210938 -31.441406 30.15625 -29.09375 30.15625 -26.09375 C 30.15625 -23.9375 29.601562 -22.164062 28.5 -20.78125 C 27.40625 -19.394531 25.765625 -18.335938 23.578125 -17.609375 L 23.578125 -17.09375 C 24.703125 -16.601562 25.609375 -15.878906 26.296875 -14.921875 C 26.992188 -13.960938 27.648438 -12.535156 28.265625 -10.640625 L 31.84375 0 L 24.578125 0 L 21.09375 -10.671875 C 20.738281 -11.742188 20.335938 -12.578125 19.890625 -13.171875 C 19.441406 -13.765625 18.867188 -14.195312 18.171875 -14.46875 C 17.484375 -14.738281 16.585938 -14.875 15.484375 -14.875 L 11.6875 -14.875 L 11.6875 0 Z M 18.109375 -20.453125 C 21.535156 -20.453125 23.25 -22.050781 23.25 -25.25 C 23.25 -28.488281 21.535156 -30.109375 18.109375 -30.109375 L 11.6875 -30.109375 L 11.6875 -20.453125 Z M 18.109375 -20.453125 "/></g></g></g><g fill="#ef5b00" fill-opacity="1"><g transform="translate(483.147438, 161.500002)"><g><path d="M 34.25 0 L 26.828125 0 L 24.140625 -8.234375 L 10.46875 -8.234375 L 7.78125 0 L 0.53125 0 L 12.859375 -35.6875 L 21.921875 -35.6875 Z M 16.96875 -28.25 L 12.375 -14.15625 L 22.1875 -14.15625 L 17.578125 -28.25 Z M 16.96875 -28.25 "/></g></g></g><g fill="#ef5b00" fill-opacity="1"><g transform="translate(517.932051, 161.500002)"><g><path d="M 11.6875 -35.6875 L 11.6875 -5.90625 L 27.734375 -5.90625 L 27.734375 0 L 4.640625 0 L 4.640625 -35.6875 Z M 11.6875 -35.6875 "/></g></g></g><g fill="#ef5b00" fill-opacity="1"><g transform="translate(546.833783, 161.500002)"><g><path d="M 11.6875 0 L 4.640625 0 L 4.640625 -35.6875 L 11.6875 -35.6875 Z M 11.6875 0 "/></g></g></g><g fill="#ef5b00" fill-opacity="1"><g transform="translate(563.188649, 161.500002)"><g><path d="M 34.25 0 L 26.828125 0 L 24.140625 -8.234375 L 10.46875 -8.234375 L 7.78125 0 L 0.53125 0 L 12.859375 -35.6875 L 21.921875 -35.6875 Z M 16.96875 -28.25 L 12.375 -14.15625 L 22.1875 -14.15625 L 17.578125 -28.25 Z M 16.96875 -28.25 "/></g></g></g></svg>